<?xml version="1.0" encoding="UTF-8" standalone="no"?>
<!-- Created with Inkscape (http://www.inkscape.org/) -->
<svg width="317.5mm" height="105.833mm" viewBox="0 0 317.5 105.833" version="1.1" id="svg1" xml:space="preserve" sodipodi:docname="banner_2026.svg" inkscape:version="1.4.2 (ebf0e940d0, 2025-05-08)" xmlns:inkscape="http://www.inkscape.org/namespaces/inkscape" xmlns:sodipodi="http://sodipodi.sourceforge.net/DTD/sodipodi-0.dtd" xmlns="http://www.w3.org/2000/svg" xmlns:svg="http://www.w3.org/2000/svg"><sodipodi:namedview id="namedview1" pagecolor="#ffffff" bordercolor="#999999" borderopacity="1" inkscape:showpageshadow="2" inkscape:pageopacity="0" inkscape:pagecheckerboard="0" inkscape:deskcolor="#d1d1d1" inkscape:document-units="mm" inkscape:zoom="0.70710678" inkscape:cx="631.44636" inkscape:cy="348.60364" inkscape:window-width="1920" inkscape:window-height="1008" inkscape:window-x="1920" inkscape:window-y="0" inkscape:window-maximized="1" inkscape:current-layer="layer1" showgrid="false"/><defs id="defs1"/><g inkscape:label="Layer 1" inkscape:groupmode="layer" id="layer1" transform="translate(69.578537,538.97656)"><path id="rect2" style="display:inline;opacity:1;fill:#e5113f;stroke-width:7.11116" inkscape:label="fondo" d="M -69.578537,-538.97656 H 247.92146 v 105.833 H -69.578537 Z"/><g id="g47" inkscape:label="logo"><path id="path5-5-1" style="display:inline;fill:#263840;fill-opacity:1;stroke:none;stroke-width:1.35917;stroke-dasharray:none" inkscape:label="body" d="M 144.09369 -538.97656 C 139.53225 -535.41395 136.5766 -529.44645 136.95408 -523.15685 C 138.54064 -506.64976 138.66475 -506.63559 138.84388 -499.73968 C 124.35977 -484.827 116.4572 -471.2999 115.73005 -451.83821 C 116.07677 -443.78723 118.14073 -437.69481 122.04853 -433.14374 L 185.65136 -433.14374 C 193.1959 -440.16684 198.79035 -449.51491 199.53062 -460.93223 C 200.16888 -486.90241 177.08403 -503.38292 174.43913 -509.41299 C 173.32108 -511.96202 172.881 -522.07181 171.58762 -530.18485 C 170.98483 -533.50687 168.80573 -536.6898 165.58954 -538.97656 L 144.09369 -538.97656 z "/><path id="path5-5" style="display:inline;fill:#1e2d34;fill-opacity:1;stroke:none;stroke-width:1.35917;stroke-dasharray:none" inkscape:label="body-shadow" d="M 158.67161 -538.97656 C 162.34659 -536.66683 164.85558 -533.22707 165.50944 -529.62364 C 166.80282 -521.5106 167.24238 -511.4008 168.36043 -508.85178 C 171.00533 -502.8217 194.09018 -486.34069 193.45192 -460.37051 C 192.86663 -451.34346 189.24692 -443.61045 184.02821 -437.29698 C 183.43425 -436.74842 181.57137 -435.04039 179.36751 -433.14374 L 185.60434 -433.14374 C 186.09737 -433.58355 186.58566 -434.02873 187.05334 -434.49818 L 187.04818 -434.50335 C 193.87714 -441.35778 198.83849 -450.23348 199.53217 -460.93223 C 200.17044 -486.90242 177.08558 -503.38239 174.44068 -509.41247 C 173.32262 -511.96149 172.88255 -522.07129 171.58917 -530.18433 C 170.98636 -533.50644 168.80689 -536.68975 165.59057 -538.97656 L 158.67161 -538.97656 z "/><path id="path366-9-5-0" style="display:inline;fill:#f8f8f8;fill-opacity:1;stroke:none;stroke-width:0.359613" inkscape:label="left" d="M 116.75376 -451.58861 C 116.31174 -451.59398 115.89873 -451.55499 115.52231 -451.46976 C 113.69332 -451.05548 111.6223 -449.78774 110.10869 -448.72832 C 105.47816 -445.48703 100.31937 -439.12573 102.45076 -433.14374 L 135.85285 -433.14374 C 135.5922 -433.65831 135.32247 -434.17902 135.04618 -434.70385 C 132.87053 -438.83672 130.22098 -443.10529 127.72828 -445.76313 C 124.36478 -449.34946 119.84791 -451.55105 116.75376 -451.58861 z "/><path id="path366-9-5" style="display:inline;fill:#ededed;fill-opacity:1;stroke:none;stroke-width:0.359613" inkscape:label="left-shadow" d="M 116.37807 -451.58189 C 116.17173 -451.57189 115.97246 -451.55128 115.78173 -451.51988 C 118.63594 -450.829 122.07977 -448.84288 124.78014 -445.96363 C 127.27284 -443.30579 129.92188 -439.03774 132.09753 -434.90488 C 132.40979 -434.3117 132.71419 -433.72335 133.006 -433.14374 L 135.85285 -433.14374 C 135.59223 -433.65825 135.32244 -434.17908 135.04618 -434.70385 C 132.87053 -438.83672 130.22098 -443.1058 127.72828 -445.76364 C 124.22585 -449.49808 119.47303 -451.7303 116.37807 -451.58189 z "/><path id="path316-2-7" style="display:inline;fill:#f8f8f8;fill-opacity:1;stroke:none;stroke-width:0.359613" inkscape:label="right" d="M 187.10967 -455.40543 C 184.39822 -455.32519 181.94826 -454.81815 180.46098 -453.65774 C 177.80468 -451.43966 176.06149 -440.24927 176.20594 -433.14374 L 202.29531 -433.14374 C 203.20972 -434.75711 203.97076 -436.51611 204.55357 -438.44109 C 206.38764 -444.4989 205.24548 -450.82779 199.59625 -453.29704 C 196.8736 -454.48709 191.62875 -455.53917 187.10967 -455.40543 z "/><path id="path316-2-7-4" style="display:inline;fill:#ededed;fill-opacity:1;stroke:none;stroke-width:0.359613" inkscape:label="right-shadow" d="M 188.76125 -455.40388 C 191.45563 -455.01296 193.93892 -454.35915 195.54482 -453.65722 C 201.19406 -451.18796 202.33622 -444.85909 200.50214 -438.80128 C 199.87562 -436.73195 199.04307 -434.85476 198.03562 -433.14374 L 202.29531 -433.14374 C 203.2098 -434.75719 203.97125 -436.51604 204.55408 -438.44109 C 206.38815 -444.49891 205.24548 -450.82779 199.59625 -453.29704 C 197.20006 -454.34441 192.85054 -455.28455 188.76125 -455.40388 z "/><path style="display:inline;fill:#fed365;fill-opacity:1;stroke:none;stroke-width:0.359613" d="m 157.34398,-498.15901 c 2.31448,-3.70006 7.9622,-6.37595 7.88166,-11.14766 -0.0457,-2.69171 -2.44035,-3.09412 -4.64514,-3.43862 -3.78061,-0.59048 -6.88083,0.18484 -10.06917,2.25117 -2.7888,1.80707 -3.78458,4.04243 -1.56863,6.90746 0.707,0.91378 1.67904,1.56109 2.64747,2.16775 1.86172,1.16659 3.81046,2.23643 5.75381,3.2599 z" id="path92-2-3" inkscape:label="beak"/></g><path d="m -51.449769,-447.06912 v -1.41111 h -4.459116 v -2.13361 h 3.939827 v -1.41111 h -3.939827 v -1.86267 h 4.255916 v -1.41111 h -5.949251 v 8.22961 z m 6.267454,0 v -8.22961 h -1.580446 v 2.92382 c -0.395111,-0.6096 -0.92569,-0.89182 -1.682046,-0.89182 -1.456268,0 -2.56258,1.3208 -2.56258,3.16089 0,1.72721 0.948267,3.13832 2.56258,3.13832 0.756356,0 1.286935,-0.28222 1.682046,-0.80151 v 0.69991 z m -1.580446,-3.01414 c 0,1.10631 -0.541867,1.79494 -1.33209,1.79494 -0.790223,0 -1.33209,-0.69992 -1.33209,-1.81752 0,-1.12889 0.541867,-1.84009 1.33209,-1.84009 0.801512,0 1.33209,0.69991 1.33209,1.86267 z m 4.2919,3.01414 v -6.09601 h -1.580446 v 6.09601 z m 0.02258,-6.82979 v -1.58044 h -1.580446 v 1.58044 z m 6.301321,4.71876 h -1.512712 c -0.203201,0.63218 -0.51929,0.93698 -1.12889,0.93698 -0.801512,0 -1.286935,-0.64347 -1.286935,-1.8288 0,-1.1176 0.293511,-1.91911 1.286935,-1.91911 0.643467,0 0.948267,0.3048 1.12889,1.10631 h 1.512712 c -0.112889,-1.49014 -1.106312,-2.38196 -2.630314,-2.38196 -1.817512,0 -2.878669,1.1176 -2.878669,3.19476 0,2.00942 1.049868,3.10445 2.856092,3.10445 1.478846,0 2.506136,-0.9144 2.652891,-2.21263 z m 2.350205,2.11103 v -6.09601 h -1.580446 v 6.09601 z m 0.02258,-6.82979 v -1.58044 h -1.580446 v 1.58044 z m 6.831901,3.82694 c 0,-2.06587 -1.117601,-3.19476 -3.025425,-3.19476 -1.862669,0 -3.002848,1.15147 -3.002848,3.1496 0,2.00943 1.140179,3.14961 3.014137,3.14961 1.85138,0 3.014136,-1.15147 3.014136,-3.10445 z m -1.580446,-0.0226 c 0,1.14018 -0.587023,1.85138 -1.43369,1.85138 -0.857957,0 -1.43369,-0.7112 -1.43369,-1.87396 0,-1.16275 0.575733,-1.87395 1.43369,-1.87395 0.869245,0 1.43369,0.69991 1.43369,1.89653 z m 0.598312,-5.46383 h -1.761069 l -0.790223,1.7385 h 1.12889 z m 7.249591,8.48926 v -4.08658 c 0,-1.34338 -0.745067,-2.11103 -2.043291,-2.11103 -0.82409,0 -1.377246,0.3048 -1.828802,0.98214 v -0.88054 h -1.580446 v 6.09601 h 1.580446 v -3.65761 c 0,-0.72249 0.508001,-1.19662 1.275646,-1.19662 0.677334,0 1.016001,0.37253 1.016001,1.09502 v 3.75921 z m 9.611086,-3.04801 c 0,-1.80622 -0.959557,-3.1496 -2.551292,-3.1496 -0.767645,0 -1.309512,0.32738 -1.693335,1.00471 v -0.90311 h -1.580446 v 8.55699 h 1.580446 v -3.27378 c 0.383823,0.67733 0.92569,0.9144 1.693335,0.9144 1.467557,0 2.551292,-1.29823 2.551292,-3.14961 z m -1.580446,0.0226 c 0,1.10631 -0.553157,1.80623 -1.332091,1.80623 -0.790223,0 -1.33209,-0.68863 -1.33209,-1.82881 0,-1.14017 0.541867,-1.8288 1.33209,-1.8288 0.801512,0 1.332091,0.68863 1.332091,1.85138 z m 5.8046133,-1.55787 v -1.60302 c -0.090311,-0.0113 -0.1467557,-0.0113 -0.1919113,-0.0113 -0.7224896,0 -1.354668,0.47414 -1.6933351,1.29822 v -1.19662 h -1.5804459 v 6.09601 h 1.5804459 v -3.23992 c 0,-0.92569 0.462845,-1.38853 1.3885348,-1.38853 0.1693335,0 0.2822225,0.0113 0.4967116,0.0451 z m 5.8271798,1.76107 c 0,-2.09973 -1.0611567,-3.37538 -2.8560918,-3.37538 -1.7497796,0 -2.8222251,1.18534 -2.8222251,3.22863 0,1.95298 1.0611566,3.07058 2.7883584,3.07058 1.3659569,0 2.4722692,-0.62089 2.8222251,-1.81752 h -1.5578683 c -0.1354668,0.44027 -0.6321784,0.60961 -1.2079123,0.60961 -0.7450674,0 -1.2192013,-0.33867 -1.2643569,-1.52401 h 4.086582 z m -1.6481795,-0.85795 H -5.087682 c 0.1016001,-0.84667 0.4967117,-1.30952 1.1966235,-1.30952 0.677334,0 1.1514678,0.44027 1.2304901,1.30952 z m 7.497943,1.87395 v -0.079 c 0,-0.69991 -0.3951115,-1.2192 -1.1966234,-1.45627 l -1.9981354,-0.57573 c -0.4402671,-0.12418 -0.5531561,-0.22578 -0.5531561,-0.47413 0,-0.33867 0.3612448,-0.56445 0.9144009,-0.56445 0.7563563,0 1.12889,0.27093 1.1401789,0.82409 h 1.5240016 c -0.022578,-1.28693 -1.016001,-2.06587 -2.6528916,-2.06587 -1.54657934,0 -2.50613587,0.77894 -2.50613587,2.032 0,0.74507 0.20320021,1.15147 1.33209024,1.50143 l 1.88524633,0.58702 c 0.3951115,0.12418 0.5305784,0.24836 0.5305784,0.41769 0,0.37253 -0.4402672,0.51929 -1.1740457,0.51929 -0.7224896,0 -1.10631222,-0.13547 -1.24177903,-0.79022 h -1.54657935 c 0.0451556,1.33209 1.02728994,2.032 2.87866958,2.032 1.7159129,0 2.6641805,-0.67734 2.6641805,-1.90783 z m 5.9626524,-1.016 c 0,-2.09973 -1.0611565,-3.37538 -2.8560916,-3.37538 -1.7497796,0 -2.8222251,1.18534 -2.8222251,3.22863 0,1.95298 1.0611566,3.07058 2.7883584,3.07058 1.3659569,0 2.4722693,-0.62089 2.8222253,-1.81752 H 9.1744255 c -0.1354668,0.44027 -0.6321784,0.60961 -1.2079123,0.60961 -0.7450675,0 -1.2192013,-0.33867 -1.2643569,-1.52401 H 10.788738 Z M 9.1518477,-450.7493 H 6.7247341 c 0.1016001,-0.84667 0.4967116,-1.30952 1.1966235,-1.30952 0.677334,0 1.1514678,0.44027 1.2304901,1.30952 z m 7.7914543,3.68018 v -4.08658 c 0,-1.34338 -0.745067,-2.11103 -2.043291,-2.11103 -0.82409,0 -1.377246,0.3048 -1.828802,0.98214 v -0.88054 h -1.580446 v 6.09601 h 1.580446 v -3.65761 c 0,-0.72249 0.508001,-1.19662 1.275646,-1.19662 0.677334,0 1.016001,0.37253 1.016001,1.09502 v 3.75921 z m 6.256166,-2.11103 h -1.512713 c -0.2032,0.63218 -0.519289,0.93698 -1.12889,0.93698 -0.801512,0 -1.286934,-0.64347 -1.286934,-1.8288 0,-1.1176 0.293511,-1.91911 1.286934,-1.91911 0.643468,0 0.948268,0.3048 1.12889,1.10631 h 1.512713 c -0.112889,-1.49014 -1.106312,-2.38196 -2.630314,-2.38196 -1.817513,0 -2.878669,1.1176 -2.878669,3.19476 0,2.00942 1.049867,3.10445 2.856092,3.10445 1.478845,0 2.506135,-0.9144 2.652891,-2.21263 z m 2.350208,2.11103 v -6.09601 H 23.96923 v 6.09601 z m 0.02258,-6.82979 v -1.58044 h -1.580446 v 1.58044 z m 6.323895,6.82979 v -0.19191 c -0.282223,-0.25965 -0.361245,-0.42898 -0.361245,-0.74507 v -3.38667 c 0,-1.24178 -0.846668,-1.87396 -2.494847,-1.87396 -1.64818,0 -2.506136,0.69991 -2.607736,2.11103 h 1.524001 c 0.07902,-0.63218 0.338667,-0.83538 1.117602,-0.83538 0.6096,0 0.914401,0.2032 0.914401,0.6096 0,0.64347 -0.474134,0.57573 -1.264357,0.7112 l -0.632179,0.11289 c -1.207912,0.21449 -1.794935,0.73378 -1.794935,1.84009 0,1.18533 0.835379,1.74978 1.85138,1.74978 0.677334,0 1.298223,-0.29351 1.851379,-0.86925 0,0.31609 0.03387,0.58703 0.180623,0.76765 z m -1.907824,-2.60774 c 0,0.9144 -0.451557,1.43369 -1.253068,1.43369 -0.530579,0 -0.857957,-0.2032 -0.857957,-0.65475 0,-0.46285 0.248356,-0.63218 0.903112,-0.75636 l 0.541867,-0.1016 c 0.41769,-0.079 0.485423,-0.1016 0.666046,-0.19191 z m 4.235454,2.60774 v -8.22961 h -1.580446 v 8.22961 z m 9.272416,-6.09601 h -1.625602 l -1.264357,4.43654 -1.343379,-4.43654 h -1.738491 l 2.269069,6.35565 v 0.0339 c 0,0.57573 -0.428978,1.016 -0.982134,1.016 -0.124178,0 -0.214489,-0.0113 -0.417689,-0.0677 v 1.18533 c 0.237067,0.0339 0.372533,0.0452 0.564445,0.0452 1.061156,0 1.614312,-0.19191 2.032002,-1.35467 z m 8.651532,0 H 50.47697 l -1.23049,4.45912 -1.320802,-4.45912 h -1.670757 l 2.133602,6.09601 h 1.659469 z m 2.192156,6.09601 v -6.09601 h -1.580446 v 6.09601 z m 0.02258,-6.82979 v -1.58044 h -1.580446 v 1.58044 z m 4.585412,2.24649 v -1.60302 c -0.09031,-0.0113 -0.146756,-0.0113 -0.191912,-0.0113 -0.722489,0 -1.354668,0.47414 -1.693335,1.29822 v -1.19662 H 55.48218 v 6.09601 h 1.580446 v -3.23992 c 0,-0.92569 0.462845,-1.38853 1.388535,-1.38853 0.169333,0 0.282222,0.0113 0.496712,0.0451 z m 3.467808,4.5833 v -1.10631 c -0.158045,0.0226 -0.248356,0.0339 -0.361245,0.0339 -0.417689,0 -0.51929,-0.12418 -0.51929,-0.66604 v -3.18347 h 0.880535 v -1.04987 h -0.880535 v -1.63689 H 59.9547 v 1.63689 h -0.778934 v 1.04987 H 59.9547 v 3.61245 c 0,0.95955 0.508001,1.35466 1.54658,1.35466 0.349956,0 0.632178,-0.0339 0.914401,-0.0451 z m 6.09813,0 v -6.09601 h -1.580446 v 3.65761 c 0,0.72248 -0.508001,1.19662 -1.275646,1.19662 -0.677334,0 -1.016001,-0.36125 -1.016001,-1.09502 v -3.75921 h -1.580446 v 4.08658 c 0,1.34338 0.745067,2.11103 2.043291,2.11103 0.82409,0 1.377246,-0.3048 1.828802,-0.90311 v 0.80151 z m 6.335188,0 v -0.19191 c -0.282222,-0.25965 -0.361245,-0.42898 -0.361245,-0.74507 v -3.38667 c 0,-1.24178 -0.846667,-1.87396 -2.494847,-1.87396 -1.648179,0 -2.506136,0.69991 -2.607736,2.11103 h 1.524002 c 0.07902,-0.63218 0.338667,-0.83538 1.117601,-0.83538 0.609601,0 0.914401,0.2032 0.914401,0.6096 0,0.64347 -0.474134,0.57573 -1.264357,0.7112 l -0.632178,0.11289 c -1.207913,0.21449 -1.794936,0.73378 -1.794936,1.84009 0,1.18533 0.835379,1.74978 1.85138,1.74978 0.677334,0 1.298224,-0.29351 1.85138,-0.86925 0,0.31609 0.03387,0.58703 0.180622,0.76765 z m -1.907824,-2.60774 c 0,0.9144 -0.451556,1.43369 -1.253068,1.43369 -0.530578,0 -0.857957,-0.2032 -0.857957,-0.65475 0,-0.46285 0.248356,-0.63218 0.903113,-0.75636 l 0.541867,-0.1016 c 0.417689,-0.079 0.485422,-0.1016 0.666045,-0.19191 z m 4.235447,2.60774 v -8.22961 h -1.580446 v 8.22961 z" id="text1" style="font-weight:bold;font-size:11.2889px;line-height:0px;font-family:'TeX Gyre Heros';-inkscape-font-specification:'TeX Gyre Heros Bold';letter-spacing:-0.370417px;direction:rtl;fill:#edecec;stroke-width:0.781813" inkscape:label="edicion presencial y virtual" aria-label="Edición presencial y virtual"/><path d="m -47.562171,-480.78217 v -10.28699 h -3.189109 l -1.806221,8.18444 -1.862665,-8.18444 h -3.160886 v 10.28699 h 2.116665 v -8.0151 l 1.848554,8.0151 h 2.116665 l 1.820332,-8.0151 v 8.0151 z m 7.842246,-3.52777 c 0,-2.62467 -1.326443,-4.21922 -3.570108,-4.21922 -2.187221,0 -3.527775,1.48167 -3.527775,4.03578 0,2.44122 1.326443,3.83821 3.485441,3.83821 1.707444,0 3.090331,-0.77611 3.527775,-2.27188 h -1.947331 c -0.169334,0.55033 -0.790222,0.762 -1.509888,0.762 -0.931333,0 -1.523999,-0.42334 -1.580443,-1.905 h 5.108218 z m -2.060221,-1.07244 h -3.033886 c 0.127,-1.05834 0.620888,-1.63689 1.495777,-1.63689 0.846666,0 1.439332,0.55033 1.538109,1.63689 z m 5.048243,4.60021 v -10.28699 h -1.975554 v 10.28699 z m 3.552467,0 v -7.61999 h -1.975554 v 7.61999 z m 0.02822,-8.53721 v -1.97556 h -1.975554 v 1.97556 z m 8.293797,8.53721 v -10.28699 h -1.975554 v 3.65478 c -0.493888,-0.762 -1.15711,-1.11478 -2.102554,-1.11478 -1.820332,0 -3.20322,1.651 -3.20322,3.95111 0,2.159 1.185333,3.92288 3.20322,3.92288 0.945444,0 1.608666,-0.35277 2.102554,-1.00188 v 0.87488 z m -1.975554,-3.76766 c 0,1.38289 -0.677333,2.24367 -1.66511,2.24367 -0.987777,0 -1.66511,-0.87489 -1.66511,-2.27189 0,-1.41111 0.677333,-2.30011 1.66511,-2.30011 1.001888,0 1.66511,0.87489 1.66511,2.32833 z m 9.944799,0.23989 c 0,-2.62467 -1.326444,-4.21922 -3.570109,-4.21922 -2.18722,0 -3.527775,1.48167 -3.527775,4.03578 0,2.44122 1.326444,3.83821 3.485442,3.83821 1.707443,0 3.090331,-0.77611 3.527775,-2.27188 h -1.947332 c -0.169333,0.55033 -0.790221,0.762 -1.509887,0.762 -0.931333,0 -1.523999,-0.42334 -1.580444,-1.905 h 5.108219 z m -2.060221,-1.07244 h -3.033886 c 0.127,-1.05834 0.620888,-1.63689 1.495776,-1.63689 0.846666,0 1.439333,0.55033 1.53811,1.63689 z m 5.147018,4.47321 v -1.93322 h -2.116665 v 2.06022 h 1.213555 v 0.0423 c 0,0.95955 -0.381,1.45344 -1.213555,1.62277 v 0.79023 c 0.578555,-0.0706 0.973666,-0.22578 1.354666,-0.52211 0.564444,-0.43745 0.761999,-0.95956 0.761999,-2.06023 z m 9.4191552,0.127 v -10.00477 h -1.3123323 c -0.3104442,1.18534 -1.3405545,1.79211 -3.0621087,1.79211 v 1.31234 h 2.398887 v 6.90032 z m 9.5920183,-8.45254 v -1.55223 h -7.041439 v 1.76389 h 4.9812184 c -0.6067773,0.64911 -1.7921098,2.46944 -2.20133166,3.34433 -0.67733281,1.45345 -1.05833252,2.76578 -1.31233232,4.89655 H 1.625579 c 0.1834443,-3.16088 1.2135547,-5.58799 3.5842195,-8.45254 z m 11.1689275,0.83255 h -2.031998 l -1.580443,5.54566 -1.679221,-5.54566 H 8.9139543 l 2.8363307,7.94455 v 0.0423 c 0,0.71967 -0.536221,1.27 -1.227665,1.27 -0.155222,0 -0.268111,-0.0141 -0.522111,-0.0847 v 1.48166 c 0.296333,0.0423 0.465666,0.0565 0.705555,0.0565 1.326443,0 2.017887,-0.23989 2.539998,-1.69334 z m 8.770041,7.61999 v -10.00477 h -1.312332 c -0.310445,1.18534 -1.340555,1.79211 -3.062109,1.79211 v 1.31234 h 2.398887 v 6.90032 z m 9.549689,-2.97744 c 0,-1.18533 -0.479778,-1.84855 -1.636888,-2.46944 0.888999,-0.47978 1.298221,-1.07244 1.298221,-2.06022 0,-1.56633 -1.354665,-2.70933 -3.203219,-2.70933 -1.862666,0 -3.217331,1.143 -3.217331,2.72344 0,0.95956 0.395111,1.56633 1.298221,2.04611 -1.15711,0.62089 -1.636888,1.28411 -1.636888,2.46944 0,1.89089 1.453444,3.10444 3.555998,3.10444 2.088442,0 3.541886,-1.21355 3.541886,-3.10444 z m -2.04611,-4.33211 c 0,0.762 -0.620888,1.31234 -1.481665,1.31234 -0.874888,0 -1.495777,-0.55034 -1.495777,-1.32645 0,-0.762 0.606777,-1.29822 1.495777,-1.29822 0.888999,0 1.467554,0.53622 1.481665,1.31233 z m 0.07056,4.24745 c 0,0.95955 -0.620889,1.49577 -1.580443,1.49577 -0.959555,0 -1.566333,-0.53622 -1.566333,-1.524 0,-1.016 0.620889,-1.56633 1.566333,-1.56633 0.973665,0 1.580443,0.55033 1.580443,1.59456 z m 13.285593,3.0621 v -10.28699 h -1.975554 v 3.65478 c -0.493889,-0.762 -1.157111,-1.11478 -2.102554,-1.11478 -1.820332,0 -3.20322,1.651 -3.20322,3.95111 0,2.159 1.185332,3.92288 3.20322,3.92288 0.945443,0 1.608665,-0.35277 2.102554,-1.00188 v 0.87488 z m -1.975554,-3.76766 c 0,1.38289 -0.677333,2.24367 -1.66511,2.24367 -0.987777,0 -1.66511,-0.87489 -1.66511,-2.27189 0,-1.41111 0.677333,-2.30011 1.66511,-2.30011 1.001888,0 1.66511,0.87489 1.66511,2.32833 z m 9.944796,0.23989 c 0,-2.62467 -1.326443,-4.21922 -3.570108,-4.21922 -2.18722,0 -3.527775,1.48167 -3.527775,4.03578 0,2.44122 1.326443,3.83821 3.485442,3.83821 1.707443,0 3.090331,-0.77611 3.527775,-2.27188 h -1.947332 c -0.169333,0.55033 -0.790222,0.762 -1.509888,0.762 -0.931332,0 -1.523999,-0.42334 -1.580443,-1.905 h 5.108218 z m -2.06022,-1.07244 H 48.88363 c 0.127,-1.05834 0.620889,-1.63689 1.495777,-1.63689 0.846666,0 1.439332,0.55033 1.53811,1.63689 z m 15.599813,4.60021 -3.555997,-10.28699 H 61.61889 l -3.654775,10.28699 h 2.158999 l 0.691443,-2.07433 h 3.852331 l 0.677333,2.07433 z m -3.428997,-3.83821 h -2.681109 l 1.340554,-4.02167 z m 11.440579,0.127 c 0,-2.159 -1.199444,-4.03578 -3.20322,-4.03578 -0.945444,0 -1.622777,0.35278 -2.102554,1.11478 v -3.65478 h -1.975554 v 10.28699 h 1.975554 v -0.87488 c 0.479777,0.64911 1.142999,1.00188 2.102554,1.00188 1.820332,0 3.20322,-1.53811 3.20322,-3.83821 z m -1.975554,-0.0847 c 0,1.38289 -0.691444,2.27189 -1.66511,2.27189 -1.001888,0 -1.66511,-0.86078 -1.66511,-2.31422 0,-1.38289 0.677333,-2.25778 1.66511,-2.25778 0.973666,0 1.66511,0.889 1.66511,2.30011 z m 7.334243,-1.93322 v -2.00378 c -0.112889,-0.0141 -0.183444,-0.0141 -0.239889,-0.0141 -0.90311,0 -1.693332,0.59267 -2.116665,1.62278 v -1.49578 h -1.975554 v 7.61999 h 1.975554 v -4.04988 c 0,-1.15711 0.578555,-1.73567 1.735666,-1.73567 0.211666,0 0.352777,0.0141 0.620888,0.0564 z m 2.818696,5.7291 v -7.61999 h -1.975555 v 7.61999 z m 0.02822,-8.53721 v -1.97556 h -1.975554 v 1.97556 z m 3.524237,8.53721 v -10.28699 h -1.975554 v 10.28699 z" id="text3" style="font-weight:bold;font-size:14.1111px;line-height:0px;font-family:'TeX Gyre Heros';-inkscape-font-specification:'TeX Gyre Heros Bold';letter-spacing:-0.370417px;direction:rtl;fill:#f3d26c" inkscape:label="ubicacion, fechas" aria-label="Melide, 17 y 18 de Abril"/><path d="m 33.494252,-499.69257 v -1.76388 h -4.924774 v -8.52311 h -2.116665 v 10.28699 z m 3.002137,0 v -7.61999 h -1.975554 v 7.61999 z m 0.02822,-8.53721 v -1.97556 h -1.975554 v 1.97556 z m 8.71713,4.82599 c 0,-2.15899 -1.199444,-4.03577 -3.20322,-4.03577 -0.945444,0 -1.622777,0.35278 -2.102554,1.11478 v -3.65478 h -1.975554 v 10.28699 h 1.975554 v -0.87488 c 0.479777,0.64911 1.142999,1.00188 2.102554,1.00188 1.820332,0 3.20322,-1.53811 3.20322,-3.83822 z m -1.975554,-0.0847 c 0,1.38289 -0.691444,2.27189 -1.66511,2.27189 -1.001888,0 -1.66511,-0.86078 -1.66511,-2.31423 0,-1.38288 0.677333,-2.25777 1.66511,-2.25777 0.973666,0 1.66511,0.889 1.66511,2.30011 z m 7.334245,-1.93322 v -2.00378 c -0.112889,-0.0141 -0.183444,-0.0141 -0.239889,-0.0141 -0.90311,0 -1.693332,0.59267 -2.116665,1.62278 v -1.49578 h -1.975554 v 7.61999 h 1.975554 v -4.04988 c 0,-1.15711 0.578555,-1.73567 1.735666,-1.73567 0.211666,0 0.352777,0.0141 0.620888,0.0564 z m 7.376563,2.20133 c 0,-2.62467 -1.326443,-4.21922 -3.570108,-4.21922 -2.187221,0 -3.527775,1.48167 -3.527775,4.03577 0,2.44123 1.326443,3.83822 3.485441,3.83822 1.707443,0 3.090331,-0.77611 3.527775,-2.27188 h -1.947331 c -0.169334,0.55033 -0.790222,0.762 -1.509888,0.762 -0.931333,0 -1.523999,-0.42334 -1.580443,-1.905 h 5.108218 z m -2.060221,-1.07244 h -3.033886 c 0.127,-1.05834 0.620888,-1.63689 1.495776,-1.63689 0.846666,0 1.439333,0.55033 1.53811,1.63689 z" id="text6" style="font-weight:bold;font-size:14.1111px;line-height:0px;font-family:'TeX Gyre Heros';-inkscape-font-specification:'TeX Gyre Heros Bold';letter-spacing:-0.370417px;direction:rtl;fill:#edecec" inkscape:label="libre" aria-label="Libre"/><path d="m 17.156355,-503.22034 c 0,-2.62467 -1.326443,-4.21922 -3.570108,-4.21922 -2.187221,0 -3.527775,1.48167 -3.527775,4.03577 0,2.44123 1.326443,3.83822 3.485442,3.83822 1.707443,0 3.09033,-0.77611 3.527775,-2.27188 h -1.947332 c -0.169333,0.55033 -0.790222,0.762 -1.509888,0.762 -0.931333,0 -1.523999,-0.42334 -1.580443,-1.905 h 5.108218 z m -2.06022,-1.07244 h -3.033887 c 0.127,-1.05834 0.620888,-1.63689 1.495777,-1.63689 0.846666,0 1.439332,0.55033 1.53811,1.63689 z m 9.465016,2.34244 v -0.0988 c 0,-0.87489 -0.493888,-1.524 -1.495777,-1.82033 l -2.497664,-0.71967 c -0.550333,-0.15522 -0.691444,-0.28222 -0.691444,-0.59266 0,-0.42334 0.451555,-0.70556 1.142999,-0.70556 0.945444,0 1.41111,0.33867 1.425221,1.03011 h 1.904999 c -0.02822,-1.60866 -1.27,-2.58233 -3.316109,-2.58233 -1.933221,0 -3.132664,0.97367 -3.132664,2.54 0,0.93133 0.254,1.43933 1.66511,1.87677 l 2.356553,0.73378 c 0.493889,0.15522 0.663222,0.31045 0.663222,0.52211 0,0.46567 -0.550333,0.64911 -1.467554,0.64911 -0.903111,0 -1.382888,-0.16933 -1.552221,-0.98777 h -1.933221 c 0.05644,1.66511 1.28411,2.53999 3.59833,2.53999 2.144888,0 3.33022,-0.84666 3.33022,-2.38477 z" id="text5" style="font-weight:bold;font-size:14.1111px;line-height:0px;font-family:'TeX Gyre Heros';-inkscape-font-specification:'TeX Gyre Heros Bold';letter-spacing:-0.370417px;direction:rtl;fill:#263840" inkscape:label="es" transform="translate(4.9999998e-7)" aria-label="es"/><path d="m -48.414154,-503.20623 h -2.06022 c -0.127,1.31233 -0.959555,1.905 -2.271887,1.905 -1.636888,0 -2.596443,-1.25589 -2.596443,-3.49955 0,-2.27189 1.001888,-3.54189 2.666998,-3.54189 1.142999,0 1.890888,0.52211 2.201332,1.84855 h 2.017887 c -0.183444,-2.37066 -1.975554,-3.65477 -4.289774,-3.65477 -2.906887,0 -4.713108,1.98966 -4.713108,5.31988 0,3.302 1.79211,5.30578 4.656663,5.30578 2.554109,0 4.261553,-1.32645 4.388552,-3.683 z m 8.180912,-0.23989 c 0,-2.58233 -1.396999,-3.99344 -3.781774,-3.99344 -2.328332,0 -3.753553,1.43933 -3.753553,3.937 0,2.51177 1.425221,3.93699 3.767664,3.93699 2.31422,0 3.767663,-1.43933 3.767663,-3.88055 z m -1.975554,-0.0282 c 0,1.42522 -0.733777,2.31422 -1.792109,2.31422 -1.072444,0 -1.79211,-0.889 -1.79211,-2.34244 0,-1.45345 0.719666,-2.34245 1.79211,-2.34245 1.086554,0 1.792109,0.87489 1.792109,2.37067 z m 9.902465,3.78177 v -5.10821 c 0,-1.67923 -0.931333,-2.63878 -2.554109,-2.63878 -1.030111,0 -1.721554,0.381 -2.285998,1.22767 v -1.10067 h -1.975554 v 7.61999 h 1.975554 v -4.57199 c 0,-0.90311 0.634999,-1.49578 1.594554,-1.49578 0.846666,0 1.269999,0.46567 1.269999,1.36878 v 4.69899 z m 8.180911,0.254 v -7.87399 h -1.876776 v 1.17122 c -0.592666,-0.90311 -1.241777,-1.29822 -2.116665,-1.29822 -1.806221,0 -3.160887,1.66511 -3.160887,4.02166 0,2.37067 1.241777,3.85233 3.118553,3.85233 0.889,0 1.425222,-0.26811 2.158999,-1.00188 v 1.12888 c 0,0.91723 -0.691444,1.55222 -1.679221,1.55222 -0.747888,0 -1.241777,-0.31044 -1.396999,-0.88899 h -2.04611 c 0.02822,1.24177 1.284111,2.15899 3.372553,2.15899 2.30011,0 3.626553,-1.03011 3.626553,-2.82222 z m -1.848554,-4.00755 c 0,1.38289 -0.719666,2.22956 -1.749776,2.22956 -0.931333,0 -1.580444,-0.84667 -1.580444,-2.22956 0,-1.43933 0.649111,-2.34244 1.608666,-2.34244 0.987777,0 1.721554,0.93133 1.721554,2.34244 z m 7.687021,-1.97555 v -2.00378 c -0.112889,-0.0141 -0.183444,-0.0141 -0.239889,-0.0141 -0.90311,0 -1.693332,0.59267 -2.116665,1.62278 v -1.49578 h -1.975554 v 7.61999 h 1.975554 v -4.04988 c 0,-1.15711 0.578555,-1.73567 1.735665,-1.73567 0.211667,0 0.352778,0.0141 0.620889,0.0564 z m 7.376567,2.20133 c 0,-2.62467 -1.326444,-4.21922 -3.570109,-4.21922 -2.18722,0 -3.527775,1.48167 -3.527775,4.03577 0,2.44123 1.326444,3.83822 3.485442,3.83822 1.707443,0 3.090331,-0.77611 3.527775,-2.27188 h -1.947332 c -0.169333,0.55033 -0.790221,0.762 -1.509887,0.762 -0.931333,0 -1.523999,-0.42334 -1.580444,-1.905 h 5.108219 z m -2.060221,-1.07244 h -3.033886 c 0.126999,-1.05834 0.620888,-1.63689 1.495776,-1.63689 0.846666,0 1.439332,0.55033 1.53811,1.63689 z m 9.4650146,2.34244 v -0.0988 c 0,-0.87489 -0.4938885,-1.524 -1.4957766,-1.82033 l -2.4976647,-0.71967 c -0.5503329,-0.15522 -0.6914439,-0.28222 -0.6914439,-0.59266 0,-0.42334 0.4515552,-0.70556 1.1429991,-0.70556 0.9454437,0 1.41111,0.33867 1.4252211,1.03011 h 1.9049985 c -0.028222,-1.60866 -1.269999,-2.58233 -3.3161085,-2.58233 -1.9332207,0 -3.1326646,0.97367 -3.1326646,2.54 0,0.93133 0.2540001,1.43933 1.6651102,1.87677 l 2.3565537,0.73378 c 0.4938885,0.15522 0.6632217,0.31045 0.6632217,0.52211 0,0.46567 -0.5503329,0.64911 -1.4675544,0.64911 -0.9031104,0 -1.3828878,-0.16933 -1.552221,-0.98777 h -1.9332212 c 0.05645,1.66511 1.2841106,2.53999 3.598331,2.53999 2.1448872,0 3.3302196,-0.84666 3.3302196,-2.38477 z m 8.1667972,-1.49578 c 0,-2.58233 -1.3969989,-3.99344 -3.78177487,-3.99344 -2.32833153,0 -3.75355263,1.43933 -3.75355263,3.937 0,2.51177 1.4252211,3.93699 3.76766373,3.93699 2.31422047,0 3.76766377,-1.43933 3.76766377,-3.88055 z m -1.975554,-0.0282 c 0,1.42522 -0.7337773,2.31422 -1.79210977,2.31422 -1.07244361,0 -1.79210972,-0.889 -1.79210972,-2.34244 0,-1.45345 0.71966611,-2.34245 1.79210972,-2.34245 1.08655467,0 1.79210977,0.87489 1.79210977,2.37067 z" id="text4" style="font-weight:bold;font-size:14.1111px;line-height:0px;font-family:'TeX Gyre Heros';-inkscape-font-specification:'TeX Gyre Heros Bold';letter-spacing:-0.370417px;direction:rtl;fill:#263840" inkscape:label="congreso" transform="translate(4.9999998e-7)" aria-label="Congreso"/><path d="m 239.56857,-477.31172 c 0,-4.60587 -2.84481,-7.55228 -6.97654,-7.55228 -1.96427,0 -3.28507,0.57574 -4.77521,2.13361 0.2032,-4.84294 1.04987,-7.01041 3.99627,-7.01041 1.524,0 2.3368,0.6096 2.9464,2.1336 h 4.40267 c -0.6096,-3.9624 -3.28507,-5.96054 -7.2136,-5.96054 -5.79121,0 -8.87308,4.47041 -8.87308,13.10641 0,4.13174 0.508,6.46854 1.7272,8.39895 1.38854,2.2352 3.89467,3.31893 6.73948,3.31893 4.7752,0 8.02641,-3.3528 8.02641,-8.56827 z m -4.50428,0.3048 c 0,2.57387 -1.55786,4.19947 -3.6576,4.19947 -2.16747,0 -3.6576,-1.55787 -3.6576,-4.09787 0,-2.64161 1.49013,-4.23334 3.69147,-4.23334 2.20133,0 3.62373,1.49013 3.62373,4.13174 z" id="text7-9-8" style="font-weight:bold;font-size:33.8667px;line-height:0px;font-family:'TeX Gyre Heros';-inkscape-font-specification:'TeX Gyre Heros Bold';letter-spacing:-0.370417px;direction:rtl;fill:#edecec" inkscape:label="unidades" aria-label="6"/><path d="m 220.97538,-485.7841 c 0,-4.63973 -3.18347,-7.62 -8.22961,-7.62 -4.9784,0 -7.89094,2.9464 -7.89094,8.0264 0,0.2032 0,0.47414 0.0339,0.84667 h 4.53814 v -0.77893 c 0,-2.67547 1.25306,-4.23334 3.42053,-4.23334 2.09974,0 3.38667,1.45627 3.38667,3.8608 0,2.64161 -0.84666,3.69147 -6.12987,7.45068 -4.064,2.77707 -5.31707,4.91067 -5.55414,9.34721 h 16.32375 v -4.23334 h -10.16001 c 0.6096,-1.28694 1.35467,-1.96427 4.87681,-4.53814 4.1656,-3.048 5.3848,-4.8768 5.3848,-8.12801 z" id="text7-6" style="font-weight:bold;font-size:33.8667px;line-height:0px;font-family:'TeX Gyre Heros';-inkscape-font-specification:'TeX Gyre Heros Bold';letter-spacing:-0.370417px;direction:rtl;fill:#263840" inkscape:label="decenas" aria-label="2"/><path d="m 222.62128,-509.54598 c 0,-6.80721 -1.2192,-12.56454 -8.26347,-12.56454 -6.87494,0 -8.26347,5.52027 -8.26347,12.42907 0,6.70561 1.3208,12.39522 8.26347,12.39522 4.8768,0 8.26347,-2.77707 8.26347,-12.25975 z m -4.74133,-0.1016 c 0,6.73947 -0.98214,8.29734 -3.52214,8.29734 -2.40454,0 -3.52214,-1.2192 -3.52214,-8.36507 0,-6.97654 0.98214,-8.56828 3.52214,-8.56828 2.3368,0 3.52214,1.18534 3.52214,8.63601 z" id="text7-9" style="font-weight:bold;font-size:33.8667px;line-height:0px;font-family:'TeX Gyre Heros';-inkscape-font-specification:'TeX Gyre Heros Bold';letter-spacing:-0.370417px;direction:rtl;fill:#edecec" inkscape:label="centenas" aria-label="0"/><path d="m 204.09881,-514.35017 c 0,-4.63973 -3.18347,-7.62 -8.22961,-7.62 -4.9784,0 -7.89094,2.9464 -7.89094,8.0264 0,0.2032 0,0.47414 0.0339,0.84667 h 4.53813 v -0.77893 c 0,-2.67547 1.25307,-4.23334 3.42054,-4.23334 2.09974,0 3.38667,1.45627 3.38667,3.8608 0,2.64161 -0.84667,3.69147 -6.12987,7.45068 -4.06401,2.77707 -5.31707,4.91067 -5.55414,9.34721 h 16.32375 v -4.23334 H 193.8372 c 0.6096,-1.28694 1.35467,-1.96427 4.8768,-4.53814 4.16561,-3.048 5.38481,-4.8768 5.38481,-8.12801 z" id="text7" style="font-weight:bold;font-size:33.8667px;line-height:0px;font-family:'TeX Gyre Heros';-inkscape-font-specification:'TeX Gyre Heros Bold';letter-spacing:-0.324484px;direction:rtl;fill:#263840;stroke-width:0.875996" inkscape:label="unidad_millar" aria-label="2"/></g></svg>