<svg id="Layer_1" data-name="Layer 1" xmlns="http://www.w3.org/2000/svg" viewBox="0 0 179.13 287.81"><defs><style>.cls-1{fill:#fff;}.cls-2{fill:#1aa5de;}</style></defs><title>Ussuri-release-logo-web</title><rect class="cls-1" x="0.75" y="0.75" width="177.63" height="286.31" rx="6"/><path d="M178.33,293.76H12.7A6.75,6.75,0,0,1,6,287V12.7A6.76,6.76,0,0,1,12.7,6H178.33a6.76,6.76,0,0,1,6.75,6.75V287A6.75,6.75,0,0,1,178.33,293.76ZM12.7,7.45A5.26,5.26,0,0,0,7.45,12.7V287a5.26,5.26,0,0,0,5.25,5.25H178.33a5.26,5.26,0,0,0,5.25-5.25V12.7a5.26,5.26,0,0,0-5.25-5.25Z" transform="translate(-5.95 -5.95)"/><path d="M25.31,221.46v-.31c0-5.45,3.43-9.27,8.23-9.27s8.19,3.79,8.19,9.21v.32c0,5.42-3.42,9.26-8.22,9.26S25.31,226.88,25.31,221.46Zm12.53-.08v-.18c0-3.58-1.81-5.84-4.33-5.84s-4.33,2.23-4.33,5.81v.18c0,3.58,1.84,5.84,4.36,5.84S37.84,225,37.84,221.38Z" transform="translate(-5.95 -5.95)"/><path d="M44.72,212.2h6c4.08,0,6.65,2.36,6.65,6.22v.05c0,4.18-3,6.28-6.8,6.36H48.48v5.53H44.72Zm5.86,9.26a2.78,2.78,0,0,0,3-2.91v0c0-1.9-1.09-2.94-3.09-2.94H48.48v5.87Z" transform="translate(-5.95 -5.95)"/><path d="M59.87,212.2h11.7v3.39h-8v3.92h7v3.4h-7V227h8.07v3.4H59.87Z" transform="translate(-5.95 -5.95)"/><path d="M74.63,212.2h3.45l7,10.58V212.2h3.69v18.16H85.5l-7.19-11v11H74.63Z" transform="translate(-5.95 -5.95)"/><path d="M91,227.92l2.23-2.78a6.94,6.94,0,0,0,4.51,2.05c1.46,0,2.34-.73,2.34-1.79v0c0-.91-.52-1.48-3.12-2.47-3.21-1.25-5.21-2.46-5.21-5.58v-.05c0-3.16,2.44-5.32,5.94-5.32a8.64,8.64,0,0,1,5.86,2.23l-2.1,2.86a6.31,6.31,0,0,0-3.86-1.69c-1.3,0-2.1.65-2.1,1.58v0c0,1,.62,1.53,3.45,2.7,3.16,1.24,4.87,2.59,4.87,5.42v0c0,3.38-2.56,5.45-6.09,5.45A9.72,9.72,0,0,1,91,227.92Z" transform="translate(-5.95 -5.95)"/><path d="M109.71,215.67h-4.57V212.2H118v3.47h-4.57v14.69h-3.73Z" transform="translate(-5.95 -5.95)"/><path d="M123.82,212.09h3.58l6.51,18.27H130l-1.35-4h-6.25l-1.32,4h-3.79Zm3.71,11-2-5.91-2,5.91Z" transform="translate(-5.95 -5.95)"/><path d="M134.61,221.41v-.24c0-5.5,3.43-9.23,8.23-9.23a7.64,7.64,0,0,1,5.84,2.41l-2.26,2.9a5.08,5.08,0,0,0-3.71-1.81c-2.44,0-4.23,2.26-4.23,5.78v.08c0,3.61,1.87,5.81,4.28,5.81a5.11,5.11,0,0,0,3.74-1.89l2.25,2.67a7.87,7.87,0,0,1-6.15,2.73C137.83,230.62,134.61,227,134.61,221.41Z" transform="translate(-5.95 -5.95)"/><path d="M151.32,212.2h3.76V220L161,212.2h4.44l-6.1,7.7,6.36,10.46h-4.41l-4.54-7.48L155.08,225v5.35h-3.76Z" transform="translate(-5.95 -5.95)"/><path d="M25.31,251.57V236.08h6.42v15.56c0,3.08,1.45,4.54,3.65,4.54S39,254.79,39,251.75V236.08h6.45v15.38c0,7.44-4.08,10.69-10.14,10.69S25.31,258.86,25.31,251.57Z" transform="translate(-5.95 -5.95)"/><path d="M52.09,258.31l3.41-4.8a10.66,10.66,0,0,0,6.74,2.9c1.7,0,2.59-.77,2.59-1.87v0c0-1-.75-1.65-3.66-2.71-4.68-1.65-8-3.4-8-8.06v-.11c0-4.65,3.44-7.91,8.87-7.91a13.32,13.32,0,0,1,8.87,3.12l-3.23,4.9a9.7,9.7,0,0,0-5.78-2.34c-1.45,0-2.27.73-2.27,1.69v0c0,1.14.78,1.72,3.94,2.93,4.71,1.58,7.66,3.55,7.66,7.91V254c0,5-3.73,8-9,8A14.83,14.83,0,0,1,52.09,258.31Z" transform="translate(-5.95 -5.95)"/><path d="M76.82,258.31l3.41-4.8a10.64,10.64,0,0,0,6.74,2.9c1.7,0,2.58-.77,2.58-1.87v0c0-1-.74-1.65-3.65-2.71-4.68-1.65-8-3.4-8-8.06v-.11c0-4.65,3.44-7.91,8.87-7.91a13.29,13.29,0,0,1,8.86,3.12l-3.22,4.9a9.73,9.73,0,0,0-5.78-2.34c-1.46,0-2.27.73-2.27,1.69v0c0,1.14.78,1.72,3.93,2.93C93,247.62,96,249.59,96,254V254c0,5-3.72,8-9,8A14.83,14.83,0,0,1,76.82,258.31Z" transform="translate(-5.95 -5.95)"/><path d="M103.43,251.57V236.08h6.42v15.56c0,3.08,1.45,4.54,3.65,4.54s3.65-1.39,3.65-4.43V236.08h6.46v15.38c0,7.44-4.08,10.69-10.15,10.69S103.43,258.86,103.43,251.57Z" transform="translate(-5.95 -5.95)"/><path d="M132,236.08h9.75c3.34,0,5.86.92,7.45,2.6a8.3,8.3,0,0,1,2.16,6v.18a7.89,7.89,0,0,1-4.43,7.54l5.11,9.3h-7.2l-4.22-7.94h-2.27v7.94H132Zm9.5,12.45A3.12,3.12,0,0,0,145,245.2v-.07c0-2.2-1.34-3.3-3.47-3.3h-3.12v6.7Z" transform="translate(-5.95 -5.95)"/><path d="M159.34,236.08h6.38v25.63h-6.38Z" transform="translate(-5.95 -5.95)"/><path class="cls-2" d="M94.49,181.79c-36.36-.56-65.24-30.9-65.24-67.27V33.38a1.25,1.25,0,0,1,1.25-1.25H58a1.25,1.25,0,0,1,1.25,1.25v81.47c0,19.8,15.59,36.47,35.39,36.93a36.29,36.29,0,0,0,37.14-36.25V33.38A1.25,1.25,0,0,1,133,32.13h27.5a1.25,1.25,0,0,1,1.25,1.25v82.15A66.35,66.35,0,0,1,94.49,181.79Z" transform="translate(-5.95 -5.95)"/><polygon class="cls-1" points="39.3 100.92 39.3 36.77 37.3 36.77 37.3 100.92 33.3 100.92 38.3 109.58 43.3 100.92 39.3 100.92"/><rect class="cls-1" x="139.83" y="36.77" width="2" height="61.96"/><path class="cls-1" d="M151.78,115.53l-5-8.65-5,8.65h4a50.26,50.26,0,0,1-100.47,2.19h-2a52.26,52.26,0,0,0,104.47-2.19h4Z" transform="translate(-5.95 -5.95)"/></svg>