<svg width="153" height="215" viewBox="0 0 153 215" fill="none" xmlns="http://www.w3.org/2000/svg">
<path d="M152.381 193.561H1.61926V194.561H152.381V193.561Z" fill="#505050"/>
<path d="M108.497 5.90606C108.1 5.58719 107.601 5.41358 107.087 5.41537H106.904C104.268 5.72651 101.614 5.87179 98.9591 5.8503C91.8973 5.86145 85.1107 3.49722 79.6539 1.59022C79.2412 1.4787 78.8514 1.34488 78.5075 1.21105C78.1636 1.07723 77.8082 0.96571 77.4758 0.876493H77.407C76.9797 0.759268 76.5274 0.759268 76.1001 0.876493C75.3943 1.05579 74.7012 1.2793 74.0251 1.54561H73.9334C68.4308 3.48607 61.6212 5.86145 54.5136 5.86145C51.8588 5.87722 49.2055 5.73196 46.5692 5.42652C46.0668 5.39498 45.5709 5.55047 45.182 5.86145C44.7767 6.24557 44.5317 6.76194 44.4942 7.31121V44.2133C44.4942 51.0829 49.2746 58.1756 58.7094 65.2683C64.0404 69.1778 69.7721 72.5413 75.8135 75.3051L76.123 75.4501C76.3355 75.5556 76.5725 75.6056 76.8109 75.5951C77.0444 75.5945 77.2751 75.5451 77.4872 75.4501H77.6248C83.4177 72.8641 88.916 69.6944 94.0296 65.9932C106.502 56.8708 109.116 49.1202 109.116 44.2244V7.31121C109.123 7.04742 109.072 6.78525 108.965 6.5427C108.858 6.30015 108.698 6.08296 108.497 5.90606V5.90606Z" fill="#19666E"/>
<path d="M76.8453 75.6505L77.8312 75.2044C83.8799 72.4409 89.6193 69.0775 94.9582 65.1676C104.404 58.0637 109.196 50.9933 109.196 44.1125V5.08044L107.087 5.43731C104.451 5.74275 101.797 5.88801 99.1425 5.87223C92.0234 5.87223 85.2024 3.49685 79.7227 1.58986H79.631L76.8453 0.619629L74.0366 1.5564H73.9449C68.4652 3.49685 61.6442 5.87223 54.5251 5.87223C51.8702 5.88801 49.2169 5.74275 46.5806 5.43731L44.4942 5.1362V44.1125C44.4942 50.971 49.2861 58.0414 58.7323 65.123C64.0712 69.0329 69.8106 72.3963 75.8594 75.1598L76.8453 75.6059V75.6505Z" fill="#19666E"/>
<path d="M47.1652 8.42584L48.9421 8.54851C50.4439 8.66003 52.0603 8.66003 53.6194 8.66003C61.4377 8.66003 68.7746 6.18428 74.6785 4.19922L75.0568 4.07655L75.6759 3.89812L76.1344 3.74199L76.6618 3.57471L77.2808 3.74199L77.7623 3.88696L78.4043 4.07655H78.5304C84.4801 6.12852 91.966 8.64888 99.7615 8.64888C101.401 8.64888 102.937 8.64888 104.439 8.53736L106.227 8.42584V44.4246C106.227 49.8556 102.478 55.6435 95.0957 61.6433C89.6786 65.9057 83.7877 69.5641 77.533 72.55L76.7993 72.8957L76.1344 72.55C69.8798 69.5641 63.9888 65.9057 58.5718 61.6433C51.9227 56.2346 48.2543 50.9931 47.555 46.0305L47.1652 8.42584Z" fill="white"/>
<path d="M76.5357 1.53369L64.2808 5.91644C64.2808 5.91644 54.3531 6.96473 53.8945 6.96473C53.436 6.96473 45.5144 6.51865 45.5144 6.51865L45.6749 36.986L76.5357 36.8299V1.53369Z" fill="#3BA9B6"/>
<path d="M107.855 36.2278L77.1547 35.7817L76.6847 75.1484L94.213 63.6841C94.213 63.6841 104.141 56.7476 106.147 52.6771C108.153 48.6066 108.784 41.2128 108.635 40.6106C108.486 40.0084 107.855 36.2278 107.855 36.2278Z" fill="#A5CF4C"/>
<path d="M77.2809 48.7517H88.7448C88.9172 49.3791 89.3183 49.9241 89.8733 50.2851C90.4282 50.6462 91.0992 50.7986 91.7611 50.714C92.423 50.6293 93.0308 50.3135 93.471 49.8253C93.9113 49.337 94.154 48.7097 94.154 48.0603C94.154 47.4108 93.9113 46.7835 93.471 46.2953C93.0308 45.8071 92.423 45.4912 91.7611 45.4066C91.0992 45.322 90.4282 45.4744 89.8733 45.8354C89.3183 46.1964 88.9172 46.7414 88.7448 47.3689H75.9969C76.4211 47.8595 76.8796 48.3725 77.2809 48.7517ZM91.4617 46.7666C91.7247 46.7666 91.9818 46.8425 92.2005 46.9847C92.4192 47.1268 92.5896 47.3288 92.6903 47.5652C92.7909 47.8016 92.8173 48.0617 92.7659 48.3127C92.7146 48.5636 92.588 48.7941 92.402 48.975C92.216 49.1559 91.9791 49.2791 91.7211 49.3291C91.4632 49.379 91.1958 49.3534 90.9528 49.2554C90.7098 49.1575 90.5021 48.9917 90.356 48.779C90.2099 48.5662 90.1319 48.3161 90.1319 48.0603C90.1316 47.7266 90.2638 47.4058 90.5009 47.1647C90.738 46.9236 91.0617 46.781 91.4044 46.7666H91.4617Z" fill="white"/>
<path d="M101.745 46.1425V46.8228C101.742 47.3128 101.54 47.782 101.184 48.1286C100.828 48.4751 100.346 48.6711 99.8418 48.674H97.0332C96.3552 48.674 95.7049 48.936 95.2255 49.4024C94.7461 49.8688 94.4767 50.5013 94.4767 51.1609V52.4657C93.8286 52.6335 93.2654 53.025 92.8922 53.567C92.5189 54.109 92.361 54.7646 92.448 55.4115C92.535 56.0584 92.861 56.6525 93.365 57.0828C93.8691 57.5132 94.5168 57.7505 95.1875 57.7505C95.8582 57.7505 96.5059 57.5132 97.01 57.0828C97.514 56.6525 97.8399 56.0584 97.9269 55.4115C98.0139 54.7646 97.8561 54.109 97.4828 53.567C97.1095 53.025 96.5463 52.6335 95.8982 52.4657V51.1609C95.8982 50.8651 96.019 50.5815 96.234 50.3723C96.449 50.1632 96.7406 50.0457 97.0446 50.0457H99.8533C100.097 50.0435 100.339 50.0136 100.576 49.9565C101.283 49.8043 101.918 49.4285 102.383 48.8878C102.848 48.3471 103.115 47.6719 103.143 46.9677V46.1313L101.745 46.1425ZM96.4829 55.0641C96.4828 55.3185 96.4056 55.5673 96.261 55.7792C96.1163 55.9912 95.9106 56.1569 95.6696 56.2557C95.4286 56.3546 95.163 56.3821 94.9061 56.3348C94.6491 56.2875 94.4121 56.1676 94.2249 55.99C94.0376 55.8124 93.9083 55.5851 93.8532 55.3364C93.798 55.0877 93.8195 54.8287 93.9149 54.5918C94.0103 54.3549 94.1754 54.1507 94.3895 54.0046C94.6036 53.8585 94.8573 53.7771 95.1187 53.7705H95.2219C95.5625 53.7876 95.8833 53.9315 96.118 54.1722C96.3527 54.413 96.4834 54.7323 96.4829 55.0641V55.0641Z" fill="white"/>
<path d="M102.501 41.2466C101.896 41.25 101.309 41.4458 100.828 41.8041C100.348 42.1625 100.002 42.6638 99.8417 43.2316H77.6133V44.6145H99.7959C99.9246 45.0994 100.191 45.5394 100.563 45.8846C100.936 46.2297 101.401 46.4662 101.906 46.567C102.41 46.6679 102.933 46.6291 103.416 46.4551C103.899 46.2811 104.321 45.9788 104.636 45.5827C104.951 45.1866 105.146 44.7124 105.197 44.2142C105.249 43.7159 105.156 43.2136 104.929 42.7642C104.702 42.3148 104.349 41.9365 103.912 41.6721C103.475 41.4078 102.97 41.2681 102.455 41.2689L102.501 41.2466ZM102.501 45.2279C102.238 45.2279 101.981 45.152 101.763 45.0098C101.544 44.8677 101.373 44.6657 101.273 44.4293C101.172 44.1929 101.146 43.9328 101.197 43.6818C101.248 43.4309 101.375 43.2004 101.561 43.0195C101.747 42.8386 101.984 42.7154 102.242 42.6654C102.5 42.6155 102.767 42.6411 103.01 42.7391C103.253 42.837 103.461 43.0028 103.607 43.2155C103.753 43.4283 103.831 43.6784 103.831 43.9342C103.831 44.2773 103.691 44.6064 103.442 44.849C103.192 45.0916 102.854 45.2279 102.501 45.2279V45.2279Z" fill="white"/>
<path d="M88.3091 55.5098C87.7059 55.5156 87.121 55.7125 86.6431 56.0707C86.1653 56.4289 85.8205 56.9289 85.6609 57.4948H83.586C83.2819 57.4948 82.9903 57.3773 82.7754 57.1682C82.5604 56.9591 82.4396 56.6754 82.4396 56.3796V50.6029C82.4373 50.366 82.4065 50.1302 82.3479 49.9003C82.181 49.2243 81.7917 48.6199 81.2391 48.179C80.6866 47.7382 80.0011 47.485 79.287 47.458H79.1953V48.8186C79.687 48.8331 80.1535 49.0333 80.4959 49.3768C80.8384 49.7204 81.0298 50.1801 81.0295 50.6586V56.3796C81.0295 57.0402 81.2985 57.6739 81.7776 58.1421C82.2567 58.6103 82.9069 58.8747 83.586 58.8777H85.638C85.7666 59.3621 86.0322 59.8018 86.4046 60.1468C86.777 60.4918 87.2414 60.7284 87.745 60.8296C88.2487 60.9309 88.7714 60.8928 89.2539 60.7197C89.7365 60.5466 90.1595 60.2454 90.4749 59.8503C90.7904 59.4552 90.9857 58.9819 91.0387 58.4843C91.0916 57.9867 91.0002 57.4846 90.7747 57.0349C90.5492 56.5853 90.1986 56.2061 89.7628 55.9405C89.327 55.6749 88.8234 55.5334 88.3091 55.5321V55.5098ZM88.3091 59.4799C87.9603 59.4799 87.6255 59.3467 87.3768 59.1089C87.1281 58.8711 86.9853 58.5478 86.9793 58.2086C86.9793 58.2086 86.9793 58.2086 86.9793 58.2086C86.9949 57.9566 87.086 57.7146 87.2414 57.5124C87.3967 57.3101 87.6094 57.1565 87.8534 57.0705C88.0973 56.9844 88.3618 56.9697 88.6142 57.0281C88.8667 57.0865 89.0961 57.2154 89.2741 57.3991C89.4522 57.5827 89.5711 57.813 89.6162 58.0616C89.6613 58.3102 89.6307 58.5662 89.5282 58.798C89.4256 59.0299 89.2555 59.2275 89.0389 59.3665C88.8223 59.5055 88.5686 59.5798 88.3091 59.5803V59.4799Z" fill="white"/>
<path d="M72.1336 48.573C72.14 48.5211 72.14 48.4687 72.1336 48.4169V48.4169V48.283C72.0689 48.1457 71.9603 48.0322 71.8241 47.9596L71.6751 47.9039L70.2306 47.6139C70.2306 47.4578 70.1274 47.3017 70.0701 47.1567C70.0128 47.0117 69.8982 46.7664 69.795 46.5656V46.4764L70.586 45.3612C70.6113 45.3193 70.6305 45.2743 70.6433 45.2274C70.6949 45.0868 70.6949 44.9331 70.6433 44.7925C70.626 44.7397 70.5988 44.6905 70.5631 44.6475V44.6475C70.3247 44.3364 70.0643 44.042 69.7835 43.7665C69.4927 43.479 69.1825 43.2108 68.855 42.9635L68.7288 42.8743L68.6027 42.8074C68.4542 42.7573 68.2927 42.7573 68.1442 42.8074C68.0986 42.8011 68.0523 42.8011 68.0066 42.8074L66.7685 43.5992L66.3214 43.3873C66.1207 43.2959 65.9139 43.2176 65.7024 43.1531H65.6107L65.3126 41.748V41.603C65.2408 41.4683 65.1233 41.362 64.9802 41.3019C64.9541 41.2934 64.926 41.2934 64.8999 41.3019H64.7967H64.6362C64.256 41.2556 63.8731 41.2332 63.4899 41.235H63.2835H62.7906H62.2976H62.1371C62.0916 41.227 62.045 41.227 61.9996 41.235C61.8541 41.2917 61.7356 41.399 61.6671 41.5361C61.6578 41.584 61.6578 41.6331 61.6671 41.681L61.0824 42.997L60.6124 43.1531C60.4048 43.2309 60.2019 43.3203 60.0048 43.4208H59.9131L58.7094 42.6513C58.6641 42.6412 58.6171 42.6412 58.5719 42.6513C58.4233 42.6011 58.2618 42.6011 58.1133 42.6513L57.9757 42.7182H57.9184C57.601 42.9528 57.2986 43.2061 57.0128 43.4765C56.718 43.7529 56.4459 44.0512 56.1988 44.3687L56.0957 44.5025C56.0899 44.5469 56.0899 44.5919 56.0957 44.6363C56.0432 44.7806 56.0432 44.9381 56.0957 45.0824L56.1644 45.2162L56.9669 46.4095C56.8981 46.5545 56.8179 46.7106 56.7606 46.8556C56.6666 47.0509 56.5862 47.252 56.5198 47.4578V47.547L55.1098 47.837C55.0685 47.8261 55.0249 47.8261 54.9837 47.837C54.8441 47.9089 54.7317 48.0222 54.6627 48.1604C54.6592 48.2086 54.6592 48.2571 54.6627 48.3053V48.3723C54.53 48.8038 54.4266 49.2434 54.3531 49.6882C54.3235 50.0594 54.3235 50.4322 54.3531 50.8034C54.3531 50.8592 54.3531 50.9149 54.3531 50.9707C54.3452 51.0149 54.3452 51.0602 54.3531 51.1045C54.4222 51.2427 54.5346 51.3559 54.6741 51.4279C54.7234 51.437 54.7739 51.437 54.8232 51.4279L56.2562 51.7179L56.4281 52.1751L56.6918 52.7661V52.8554L55.9008 53.9706C55.9008 53.9706 55.9008 54.0375 55.8435 54.1044C55.7918 54.245 55.7918 54.3987 55.8435 54.5393C55.857 54.5914 55.8803 54.6405 55.9122 54.6843C56.162 55.0067 56.4339 55.3122 56.7262 55.5988C57.0082 55.8724 57.3068 56.1293 57.6204 56.3683L57.7465 56.4575L57.8726 56.5244C58.0211 56.5745 58.1826 56.5745 58.3311 56.5244C58.3804 56.5325 58.4308 56.5325 58.4801 56.5244L59.7068 55.7326L60.1539 55.9445C60.3585 56.0359 60.5692 56.1141 60.7844 56.1787H60.8761L61.1627 57.5615C61.1554 57.6058 61.1554 57.651 61.1627 57.6953C61.2312 57.8324 61.3497 57.9397 61.4951 57.9964C61.5443 58.0061 61.595 58.0061 61.6442 57.9964H61.713C62.1193 58.0535 62.5291 58.0833 62.9396 58.0857V58.0857C63.3227 58.0853 63.7055 58.0629 64.086 58.0188H64.2465C64.2921 58.0253 64.3384 58.0253 64.384 58.0188C64.5253 57.9558 64.6418 57.8502 64.7165 57.7176C64.7165 57.6619 64.7165 57.6173 64.7165 57.5727L65.0146 56.1675L65.4846 56.0114L66.0922 55.7437H66.1724L67.3876 56.5132C67.4292 56.5213 67.4721 56.5213 67.5137 56.5132C67.6622 56.5634 67.8237 56.5634 67.9722 56.5132L68.1098 56.4463H68.1671C68.4959 56.2043 68.8098 55.9436 69.1072 55.6657C69.3878 55.394 69.6483 55.1033 69.8867 54.7958L69.9899 54.662C70.0197 54.6211 70.0429 54.5759 70.0587 54.5282C70.1103 54.3875 70.1103 54.2339 70.0587 54.0932C70.0451 54.0412 70.0218 53.992 69.9899 53.9483L69.6803 53.0338L69.8982 52.5877L70.1389 51.9855C70.1349 51.9559 70.1349 51.9259 70.1389 51.8963L71.549 51.5617H71.6865C71.8228 51.4891 71.9313 51.3757 71.9961 51.2383C71.9995 51.1901 71.9995 51.1416 71.9961 51.0933V51.0264C72.0547 50.6312 72.0853 50.2325 72.0878 49.8332C72.1371 49.4149 72.1525 48.9936 72.1336 48.573V48.573ZM63.2606 53.123C62.5622 53.123 61.8796 52.9216 61.2989 52.5441C60.7183 52.1667 60.2657 51.6303 59.9985 51.0026C59.7312 50.375 59.6613 49.6844 59.7975 49.0181C59.9338 48.3518 60.2701 47.7398 60.7639 47.2594C61.2577 46.779 61.8868 46.4519 62.5717 46.3194C63.2567 46.1868 63.9666 46.2549 64.6118 46.5148C65.257 46.7748 65.8084 47.2151 66.1964 47.7799C66.5844 48.3448 66.7915 49.0088 66.7915 49.6882C66.7975 50.143 66.7107 50.5944 66.536 51.0163C66.3612 51.4382 66.1021 51.8222 65.7736 52.1459C65.4452 52.4696 65.0539 52.7266 64.6225 52.902C64.1911 53.0774 63.7281 53.1677 63.2606 53.1676V53.123Z" fill="#3BA9B6"/>
<mask id="mask0_615_931" style="mask-type:alpha" maskUnits="userSpaceOnUse" x="47" y="8" width="29" height="27">
<rect x="47.1652" y="8.46143" width="28.1094" height="26.5204" fill="#C4C4C4"/>
</mask>
<g mask="url(#mask0_615_931)">
<path d="M73.4404 21.9314C73.1697 21.8781 72.8885 21.9112 72.6386 22.0257C72.3887 22.1402 72.1835 22.33 72.0533 22.5671C56.5771 21.8087 45.4686 15.9651 45.4686 12.3295C45.4686 11.0693 46.8672 9.78683 49.4007 8.62702C48.9547 8.92308 48.5837 9.31381 48.3156 9.76973C48.0475 10.2256 47.8893 10.7348 47.8531 11.2589C47.8531 14.7829 55.6141 18.3739 66.0921 19.779C66.1346 20.0748 66.2962 20.342 66.5413 20.5219C66.7864 20.7017 67.0949 20.7795 67.399 20.7381C67.703 20.6967 67.9777 20.5395 68.1626 20.3011C68.3475 20.0627 68.4274 19.7626 68.3849 19.4668C68.4154 19.3045 68.4086 19.1376 68.3648 18.9782C68.321 18.8188 68.2415 18.6708 68.1318 18.5449C68.0221 18.419 67.8851 18.3184 67.7306 18.2502C67.5762 18.1821 67.4081 18.1482 67.2385 18.1509C67.0586 18.1491 66.8808 18.1886 66.7194 18.2661C66.5581 18.3436 66.4178 18.4569 66.3099 18.5969C55.9924 17.2141 49.1141 13.7458 49.1141 11.2589C49.1141 10.2329 50.3293 9.15117 52.5532 8.15864C52.2339 8.4211 51.9735 8.74463 51.7881 9.10914C51.6027 9.47365 51.4964 9.87134 51.4756 10.2775C51.4756 14.0358 60.6467 16.1881 69.1644 16.9687C69.2762 17.3363 69.5053 17.6598 69.8185 17.8923C70.1318 18.1249 70.5129 18.2545 70.9069 18.2624C71.4008 18.2655 71.8763 18.0806 72.2319 17.7472C72.5875 17.4138 72.795 16.9583 72.8099 16.478C72.8223 16.0614 72.6872 15.6533 72.4271 15.3221C72.1671 14.9909 71.7979 14.7567 71.3815 14.6587C70.9651 14.5606 70.5267 14.6048 70.1397 14.7838C69.7528 14.9627 69.4408 15.2656 69.2561 15.6416C58.6062 14.6714 52.8628 12.2068 52.8628 10.2775C52.8628 9.0508 55.1555 7.69025 59.0303 6.63081C60.7089 6.16982 62.4118 5.79754 64.1318 5.5156V3.43018C62.9854 3.53054 61.839 3.64206 60.6926 3.77589C46.8098 5.08068 35.0479 8.93928 35.0479 14.5376C35.0479 19.5114 44.4254 27.0056 56.7605 29.7267C56.7945 30.157 56.9848 30.5616 57.2974 30.8679C57.61 31.1743 58.0245 31.3624 58.4666 31.3987C58.9087 31.4349 59.3497 31.317 59.7106 31.0659C60.0715 30.8148 60.3288 30.4469 60.4364 30.0282C60.544 29.6094 60.495 29.1671 60.298 28.7803C60.101 28.3936 59.769 28.0876 59.3613 27.9172C58.9536 27.7468 58.4969 27.7231 58.0729 27.8503C57.6489 27.9775 57.2853 28.2473 57.0471 28.6115C44.5056 25.8234 36.2745 18.4631 36.2745 14.5376C36.2745 12.5414 38.5673 10.534 42.7631 8.83891C40.5964 10.2106 39.5074 11.7719 39.5074 13.4112C39.5074 18.8311 51.6705 26.1357 67.1468 27.6747C67.3125 28.0946 67.6185 28.4482 68.0155 28.6787C68.4126 28.9093 68.8777 29.0034 69.3364 28.946C69.8685 28.8922 70.3586 28.6405 70.7046 28.2436C71.0505 27.8466 71.2255 27.335 71.1929 26.8155C71.1604 26.2961 70.9229 25.8089 70.5299 25.4557C70.137 25.1026 69.619 24.9107 69.0841 24.9201C68.7271 24.9182 68.3759 25.0079 68.0659 25.1802C67.756 25.3525 67.4982 25.6013 67.3187 25.9015C51.9457 24.3737 41.3301 17.058 41.3301 13.4112C41.3301 11.928 43.1299 10.3779 46.294 9.01734C45.7075 9.38075 45.2165 9.87255 44.8602 10.4535C44.5039 11.0344 44.2922 11.6883 44.2419 12.363C44.2419 17.0691 56.3249 22.9908 72.0418 23.7938C72.1508 23.9982 72.3152 24.1698 72.5173 24.2897C72.7194 24.4096 72.9515 24.4734 73.1882 24.4741C73.5053 24.464 73.8078 24.3421 74.0392 24.131C74.2707 23.92 74.4154 23.6343 74.4462 23.3271C74.4771 23.02 74.3921 22.7124 74.207 22.4617C74.022 22.2111 73.7495 22.0345 73.4404 21.9648V21.9314Z" fill="white"/>
</g>
<path d="M108.497 5.90606C108.1 5.58719 107.601 5.41358 107.087 5.41537H106.904C104.268 5.72651 101.614 5.87179 98.9591 5.8503C91.8973 5.86145 85.1107 3.49722 79.6539 1.59022C79.2412 1.4787 78.8514 1.34488 78.5075 1.21105C78.1636 1.07723 77.8082 0.96571 77.4758 0.876493H77.407C76.9797 0.759268 76.5274 0.759268 76.1001 0.876493C75.3943 1.05579 74.7012 1.2793 74.0251 1.54561H73.9334C68.4308 3.48607 61.6212 5.86145 54.5136 5.86145C51.8588 5.87722 49.2055 5.73196 46.5692 5.42652C46.0668 5.39498 45.5709 5.55047 45.182 5.86145C44.7767 6.24557 44.5317 6.76194 44.4942 7.31121V44.2133C44.4942 51.0829 49.2746 58.1756 58.7094 65.2683C64.0404 69.1778 69.7721 72.5413 75.8135 75.3051L76.123 75.4501C76.3355 75.5556 76.5725 75.6056 76.8109 75.5951C77.0444 75.5945 77.2751 75.5451 77.4872 75.4501H77.6248C83.4177 72.8641 88.916 69.6944 94.0296 65.9932C106.502 56.8708 109.116 49.1202 109.116 44.2244V7.31121C109.123 7.04742 109.072 6.78525 108.965 6.5427C108.858 6.30015 108.698 6.08296 108.497 5.90606V5.90606ZM78.4273 4.11058C84.4802 6.1291 91.9661 8.64946 99.7615 8.64946C101.401 8.64946 102.937 8.64946 104.439 8.53794L106.227 8.42642V34.8121H78.1865V4.02136L78.347 4.07712L78.4273 4.11058ZM48.8963 8.57139C50.3981 8.68291 52.0145 8.68291 53.5736 8.68291C61.392 8.68291 68.7288 6.20716 74.6327 4.2221L75.011 4.09943L75.3779 3.98791V34.8121H47.3946L47.1653 8.42642L48.8963 8.57139ZM58.4687 61.6773C51.8196 56.2686 48.1512 51.0272 47.4519 46.0645L47.4748 37.4998H75.4237V72.2383C69.4099 69.3124 63.7403 65.7601 58.5145 61.6439L58.4687 61.6773ZM95.0499 61.6773C89.8241 65.7935 84.1545 69.3458 78.1407 72.2718V37.4998H106.227V44.4252C106.227 49.8562 102.501 55.6441 95.0957 61.6439L95.0499 61.6773Z" fill="#19666E"/>
<path d="M83.4828 27.9866C83.1141 27.98 82.7517 28.0803 82.4418 28.2747C82.1319 28.4691 81.8886 28.7489 81.7427 29.0784C81.5969 29.4079 81.5551 29.7721 81.6229 30.1248C81.6906 30.4774 81.8647 30.8024 82.123 31.0584C82.3813 31.3145 82.7121 31.4899 83.0733 31.5623C83.4344 31.6348 83.8096 31.601 84.151 31.4653C84.4923 31.3296 84.7844 31.0981 84.99 30.8004C85.1957 30.5026 85.3055 30.152 85.3056 29.7933C85.3027 29.3207 85.1109 28.8678 84.7706 28.5306C84.4303 28.1933 83.9684 27.9982 83.4828 27.9866Z" fill="#A5CF4C"/>
<path d="M83.4828 13.7119C87.8642 13.7178 92.0642 15.4143 95.1612 18.4292C98.2582 21.444 99.9992 25.531 100.002 29.7931V30.2504C99.9948 30.4329 100.026 30.6149 100.093 30.7855C100.16 30.9561 100.261 31.1117 100.392 31.2429C100.518 31.3789 100.672 31.4878 100.844 31.5627C101.015 31.6376 101.201 31.6768 101.389 31.6778V31.6778C101.763 31.6809 102.122 31.5411 102.39 31.2886C102.658 31.0362 102.813 30.6913 102.822 30.3284V29.7931C102.816 24.8012 100.778 20.0147 97.1541 16.4807C93.5298 12.9467 88.6144 10.9527 83.4828 10.9351H82.9211C82.5429 10.9474 82.1848 11.1035 81.9237 11.37C81.6663 11.6391 81.5266 11.995 81.534 12.3625C81.5369 12.547 81.5777 12.7291 81.6541 12.898C81.7304 13.0669 81.8408 13.2193 81.9786 13.346C82.1164 13.4728 82.2789 13.5715 82.4565 13.6363C82.6341 13.701 82.8233 13.7305 83.0128 13.7231L83.4828 13.7119Z" fill="#A5CF4C"/>
<path d="M83.4828 19.2326C86.3612 19.2355 89.1207 20.3492 91.156 22.3291C93.1913 24.309 94.3361 26.9935 94.3391 29.7936C94.3391 29.9274 94.3391 30.0724 94.3391 30.2396C94.3286 30.4206 94.3557 30.6017 94.4187 30.7722C94.4817 30.9428 94.5794 31.0992 94.706 31.2322C94.8958 31.4369 95.1442 31.5817 95.4193 31.648C95.6943 31.7144 95.9835 31.6993 96.2497 31.6046C96.5158 31.5099 96.7468 31.3399 96.913 31.1166C97.0791 30.8933 97.1729 30.6267 97.1822 30.3512C97.1822 30.1504 97.1822 29.9608 97.1822 29.7936C97.1822 26.2443 95.7328 22.8405 93.1529 20.3308C90.5731 17.8211 87.074 16.4111 83.4255 16.4111H82.8523C82.4733 16.4298 82.1163 16.5896 81.8549 16.8572C81.602 17.1327 81.4667 17.4917 81.4766 17.8609C81.4855 18.0431 81.5316 18.2218 81.6123 18.3865C81.693 18.5512 81.8067 18.6985 81.9467 18.82C82.0813 18.9467 82.2415 19.0448 82.4171 19.1082C82.5927 19.1715 82.78 19.1987 82.9669 19.188L83.4828 19.2326Z" fill="#A5CF4C"/>
<path d="M83.4828 24.9312C84.8075 24.9341 86.077 25.4473 87.0137 26.3585C87.9504 27.2698 88.478 28.5048 88.481 29.7934C88.481 29.905 88.481 30.0388 88.481 30.1838C88.4506 30.5505 88.5712 30.914 88.8163 31.1943C89.0614 31.4745 89.4109 31.6486 89.7879 31.6781C90.1649 31.7077 90.5386 31.5904 90.8267 31.352C91.1147 31.1135 91.2937 30.7736 91.3241 30.4068C91.3241 30.1838 91.3241 29.983 91.3241 29.7934C91.321 27.7683 90.4927 25.827 89.0207 24.395C87.5487 22.963 85.5531 22.1572 83.4713 22.1543H82.8408C82.4633 22.1903 82.1145 22.3659 81.8664 22.645C81.7456 22.7827 81.6541 22.9422 81.597 23.1145C81.54 23.2868 81.5185 23.4683 81.5339 23.6487C81.5452 23.831 81.5948 24.0092 81.6796 24.1723C81.7643 24.3353 81.8825 24.4797 82.0269 24.5966C82.3157 24.8374 82.6906 24.9576 83.0701 24.9312H83.4828Z" fill="#A5CF4C"/>
<path d="M106.984 5.43731C104.401 5.73862 101.801 5.88016 99.1998 5.86108C92.1839 5.86108 85.5578 3.49685 80.1927 1.58986H80.101L77.3496 0.619629H77.2809V75.617H77.384L78.347 75.1709C84.2769 72.4007 89.894 69.0369 95.1072 65.1341C104.324 58.0749 109.024 51.0045 109.024 44.1125V5.08044L106.984 5.43731Z" fill="url(#paint0_linear_615_931)"/>
<path opacity="0.5" d="M46.5921 5.59371C49.167 5.89817 51.7593 6.04344 54.3531 6.02864C61.3461 6.02864 68.0181 3.65326 73.3832 1.73511H73.4749L76.2262 0.79834H76.3294V74.9259L76.2262 74.9816L75.2632 74.5355C69.329 71.7667 63.708 68.4028 58.4916 64.4987C49.2402 57.4283 44.5515 50.358 44.5515 43.4883V5.29261L46.5921 5.59371Z" fill="url(#paint1_linear_615_931)"/>
<path d="M36.7289 180.499V175.744H35.0079V174.872H39.5256V175.744H37.7687V180.499H36.7289Z" fill="#505050"/>
<path d="M40.649 180.499V174.872H44.617V175.744H41.6649V177.197H44.5572V178.057H41.6649V179.627H44.617V180.499H40.649Z" fill="#505050"/>
<path d="M45.86 180.499V174.872H46.8759V179.627H49.4216V180.499H45.86Z" fill="#505050"/>
<path d="M50.2701 180.499V174.872H54.2261V175.744H51.286V177.197H54.1664V178.057H51.286V179.627H54.2261V180.499H50.2701Z" fill="#505050"/>
<path d="M55.2898 177.697C55.278 177.308 55.3487 176.92 55.4975 176.559C55.6464 176.197 55.8702 175.869 56.155 175.595C56.4398 175.322 56.7795 175.108 57.1529 174.967C57.5263 174.827 57.9255 174.763 58.3255 174.779C58.7918 174.768 59.2526 174.88 59.6587 175.103C60.0649 175.326 60.4013 175.652 60.6322 176.046L59.7836 176.476C59.6307 176.232 59.4169 176.03 59.162 175.887C58.9071 175.745 58.6194 175.668 58.3255 175.662C57.7997 175.701 57.3083 175.932 56.9497 176.308C56.5912 176.684 56.392 177.178 56.392 177.691C56.392 178.204 56.5912 178.698 56.9497 179.075C57.3083 179.451 57.7997 179.681 58.3255 179.72C58.6194 179.715 58.9071 179.638 59.162 179.495C59.4169 179.353 59.6307 179.15 59.7836 178.906L60.6442 179.325C60.409 179.719 60.0703 180.045 59.6628 180.27C59.2554 180.494 58.7939 180.61 58.3255 180.604C57.9265 180.62 57.5284 180.556 57.1558 180.416C56.7832 180.276 56.4441 180.064 56.1594 179.791C55.8748 179.519 55.6508 179.192 55.5012 178.832C55.3516 178.472 55.2797 178.085 55.2898 177.697V177.697Z" fill="#505050"/>
<path d="M61.1581 177.697C61.1652 177.131 61.3443 176.579 61.6729 176.111C62.0016 175.644 62.4651 175.281 63.0051 175.069C63.5451 174.857 64.1375 174.805 64.7077 174.92C65.278 175.035 65.8006 175.311 66.2099 175.714C66.6192 176.117 66.8968 176.628 67.0078 177.185C67.1189 177.741 67.0584 178.316 66.8339 178.839C66.6095 179.362 66.2311 179.808 65.7464 180.122C65.2618 180.436 64.6925 180.604 64.1102 180.604C63.7162 180.615 63.3241 180.548 62.9582 180.405C62.5923 180.263 62.2605 180.049 61.9835 179.776C61.7065 179.503 61.4902 179.178 61.3482 178.82C61.2062 178.463 61.1415 178.08 61.1581 177.697V177.697ZM66.0224 177.697C65.9922 177.334 65.8539 176.988 65.6244 176.7C65.395 176.413 65.0843 176.197 64.7304 176.078C64.3766 175.96 63.995 175.944 63.6322 176.034C63.2695 176.123 62.9414 176.313 62.6881 176.581C62.4348 176.849 62.2673 177.183 62.2061 177.542C62.145 177.902 62.1928 178.27 62.3437 178.603C62.4946 178.936 62.7421 179.219 63.0558 179.418C63.3696 179.616 63.736 179.721 64.1102 179.72C64.3755 179.719 64.6377 179.665 64.8805 179.561C65.1233 179.457 65.3413 179.305 65.5209 179.115C65.7005 178.925 65.8377 178.701 65.924 178.457C66.0104 178.213 66.0438 177.954 66.0224 177.697V177.697Z" fill="#505050"/>
<path d="M72.9784 180.499V176.162L71.2095 180.499H70.7793L68.9985 176.162V180.499H67.9826V174.872H69.4048L70.9824 178.732L72.584 174.872H74.0062V180.499H72.9784Z" fill="#505050"/>
<path d="M79.2888 180.499V174.872H80.3047V180.499H79.2888Z" fill="#505050"/>
<path d="M86.149 180.499L83.1372 176.476V180.499H82.1452V174.872H83.185L86.149 178.766V174.872H87.153V180.499H86.149Z" fill="#505050"/>
<path d="M88.9577 180.499V174.872H92.9018V175.744H89.9736V177.197H92.9018V178.057H89.9736V180.499H88.9577Z" fill="#505050"/>
<path d="M97.0968 180.499L95.8179 178.394H94.802V180.499H93.7861V174.872H96.3318C96.579 174.853 96.8273 174.886 97.0607 174.968C97.2941 175.049 97.5072 175.177 97.6864 175.344C97.8656 175.51 98.0068 175.712 98.1008 175.935C98.1948 176.158 98.2396 176.398 98.2322 176.639C98.2544 177.033 98.1245 177.42 97.868 177.726C97.6115 178.031 97.2469 178.232 96.8458 178.29L98.268 180.499H97.0968ZM97.1924 176.627C97.1929 176.504 97.1669 176.382 97.1162 176.269C97.0654 176.156 96.9909 176.055 96.8975 175.972C96.804 175.888 96.6938 175.825 96.5737 175.786C96.4537 175.747 96.3265 175.732 96.2004 175.744H94.802V177.534H96.2004C96.3271 177.544 96.4545 177.528 96.5746 177.487C96.6947 177.446 96.8048 177.382 96.898 177.298C96.9912 177.214 97.0655 177.112 97.1161 176.998C97.1668 176.885 97.1927 176.762 97.1924 176.639V176.627Z" fill="#505050"/>
<path d="M103.575 180.499L103.144 179.406H100.491L100.073 180.499H98.8776L101.148 174.872H102.463L104.734 180.499H103.575ZM101.818 175.848L100.778 178.534H102.857L101.818 175.848Z" fill="#505050"/>
<path d="M108.558 180.499V174.872H110.734C110.968 174.853 111.203 174.881 111.425 174.955C111.648 175.029 111.852 175.147 112.025 175.302C112.197 175.456 112.335 175.644 112.43 175.854C112.524 176.063 112.573 176.289 112.573 176.517C112.573 176.746 112.524 176.972 112.43 177.181C112.335 177.39 112.197 177.578 112.025 177.733C111.852 177.887 111.648 178.005 111.425 178.079C111.203 178.153 110.968 178.182 110.734 178.162H109.06V180.488L108.558 180.499ZM111.953 176.523C111.953 176.363 111.92 176.205 111.854 176.058C111.789 175.912 111.694 175.78 111.574 175.671C111.454 175.562 111.312 175.478 111.157 175.424C111.002 175.371 110.838 175.349 110.674 175.36H109.06V177.767H110.674C110.845 177.779 111.017 177.755 111.178 177.697C111.338 177.639 111.484 177.548 111.606 177.43C111.727 177.312 111.821 177.169 111.881 177.013C111.941 176.857 111.965 176.689 111.953 176.523Z" fill="#505050"/>
<path d="M116.805 180.499L115.192 178.173H113.961V180.499H113.471V174.872H115.61C115.84 174.855 116.071 174.886 116.288 174.962C116.505 175.039 116.702 175.159 116.868 175.314C117.034 175.47 117.164 175.658 117.25 175.867C117.336 176.075 117.376 176.298 117.367 176.522C117.378 176.733 117.345 176.943 117.27 177.14C117.194 177.338 117.077 177.518 116.927 177.669C116.777 177.821 116.596 177.941 116.396 178.021C116.196 178.102 115.982 178.142 115.765 178.139L117.438 180.464L116.805 180.499ZM116.805 176.522C116.805 176.363 116.772 176.205 116.707 176.058C116.642 175.911 116.546 175.779 116.426 175.67C116.306 175.561 116.164 175.477 116.009 175.424C115.855 175.37 115.69 175.349 115.526 175.36H113.961V177.778H115.61C115.78 177.787 115.95 177.76 116.109 177.7C116.268 177.639 116.412 177.547 116.531 177.428C116.649 177.309 116.741 177.166 116.798 177.01C116.856 176.854 116.879 176.688 116.865 176.522H116.805Z" fill="#505050"/>
<path d="M118.669 177.697C118.704 177.165 118.898 176.655 119.227 176.229C119.557 175.804 120.006 175.481 120.522 175.3C121.037 175.12 121.595 175.09 122.128 175.215C122.66 175.339 123.144 175.612 123.519 176C123.894 176.388 124.144 176.875 124.239 177.399C124.333 177.924 124.268 178.464 124.051 178.953C123.835 179.443 123.475 179.859 123.018 180.153C122.561 180.446 122.026 180.603 121.478 180.604C121.093 180.606 120.712 180.531 120.358 180.384C120.004 180.236 119.685 180.019 119.422 179.746C119.158 179.474 118.955 179.151 118.826 178.798C118.696 178.445 118.643 178.071 118.669 177.697V177.697ZM123.761 177.697C123.715 177.268 123.542 176.861 123.262 176.525C122.983 176.19 122.61 175.94 122.188 175.807C121.767 175.673 121.314 175.662 120.885 175.773C120.457 175.885 120.071 176.115 119.774 176.435C119.477 176.756 119.282 177.153 119.212 177.58C119.143 178.006 119.202 178.443 119.382 178.837C119.562 179.231 119.856 179.566 120.228 179.801C120.6 180.037 121.034 180.162 121.478 180.162C121.799 180.16 122.116 180.093 122.409 179.965C122.702 179.838 122.964 179.652 123.179 179.42C123.394 179.188 123.557 178.915 123.657 178.618C123.757 178.321 123.792 178.008 123.761 177.697V177.697Z" fill="#505050"/>
<path d="M124.693 179.906L124.992 179.534C125.121 179.727 125.299 179.886 125.507 179.995C125.716 180.105 125.95 180.162 126.187 180.162C126.363 180.175 126.539 180.15 126.703 180.089C126.868 180.028 127.017 179.933 127.139 179.809C127.261 179.686 127.354 179.538 127.41 179.376C127.467 179.214 127.486 179.041 127.466 178.871V174.872H127.956V178.871C127.977 179.101 127.947 179.332 127.867 179.55C127.788 179.767 127.661 179.965 127.495 180.129C127.329 180.294 127.128 180.422 126.906 180.504C126.685 180.585 126.447 180.62 126.211 180.603C125.918 180.622 125.625 180.567 125.359 180.445C125.094 180.323 124.865 180.138 124.693 179.906V179.906Z" fill="#505050"/>
<path d="M129.641 180.499V174.872H133.298V175.313H130.131V177.395H133.239V177.801H130.131V180.022H133.298V180.464L129.641 180.499Z" fill="#505050"/>
<path d="M134.266 177.697C134.25 177.315 134.314 176.935 134.455 176.578C134.595 176.221 134.809 175.896 135.083 175.623C135.357 175.35 135.686 175.134 136.049 174.989C136.412 174.844 136.802 174.772 137.195 174.779C137.601 174.775 138.003 174.864 138.368 175.037C138.733 175.211 139.051 175.465 139.298 175.779L138.88 176.046C138.687 175.788 138.433 175.578 138.14 175.434C137.847 175.291 137.523 175.217 137.195 175.221C136.551 175.264 135.948 175.542 135.508 176.001C135.068 176.46 134.823 177.064 134.823 177.691C134.823 178.319 135.068 178.923 135.508 179.381C135.948 179.84 136.551 180.119 137.195 180.162C137.521 180.165 137.844 180.092 138.137 179.951C138.43 179.81 138.684 179.603 138.88 179.348L139.31 179.592C139.063 179.909 138.743 180.166 138.375 180.341C138.008 180.517 137.604 180.607 137.195 180.604C136.803 180.612 136.413 180.542 136.05 180.398C135.687 180.254 135.358 180.039 135.084 179.767C134.809 179.495 134.595 179.17 134.455 178.814C134.314 178.458 134.25 178.078 134.266 177.697V177.697Z" fill="#505050"/>
<path d="M141.724 180.499V175.313H139.836V174.872H144.115V175.313H142.226V180.499H141.724Z" fill="#505050"/>
<path d="M7.68634 177.034L15.3832 169.547L23.092 177.034H24.2633L15.3832 168.396L6.51508 177.034H7.68634Z" fill="#505050"/>
<path d="M23.092 178.348L15.3832 185.847L7.68634 178.348H6.51508L15.3832 186.986L24.2633 178.348H23.092Z" fill="#505050"/>
<path d="M14.5347 177.034L22.2435 169.547L29.9404 177.034H31.1236L22.2435 168.396L13.3634 177.034H14.5347Z" fill="#505050"/>
<path d="M29.9404 178.348L22.2435 185.847L14.5347 178.348H13.3634L22.2435 186.986L31.1236 178.348H29.9404Z" fill="#505050"/>
<path d="M13.7022 157.138H6.05578L4.54255 160.584H1.61926L8.49759 145.696H11.2948L18.1731 160.584H15.1925L13.7022 157.138ZM12.7622 154.964L9.87325 148.462L7.01875 154.964H12.7622Z" fill="#505050"/>
<path d="M29.2816 159.804C28.0674 159.172 27.0559 158.227 26.3583 157.072C25.6406 155.883 25.2719 154.525 25.2922 153.146C25.2634 151.78 25.6227 150.432 26.3306 149.251C27.0386 148.071 28.0676 147.103 29.3046 146.455C30.4737 145.87 31.7585 145.536 33.0719 145.477C34.3853 145.417 35.6964 145.633 36.9166 146.109C37.9296 146.511 38.8296 147.142 39.5418 147.949L37.7076 149.633C37.1956 149.075 36.5661 148.631 35.8619 148.331C35.1577 148.03 34.3952 147.881 33.6264 147.893C32.6429 147.877 31.6718 148.108 30.8063 148.563C29.9882 148.991 29.3122 149.637 28.8575 150.425C28.3802 151.247 28.1387 152.18 28.1582 153.124C28.1415 154.068 28.3828 154.999 28.8575 155.823C29.3159 156.605 29.9912 157.247 30.8063 157.674C31.6718 158.129 32.6429 158.359 33.6264 158.343C34.3975 158.356 35.1623 158.205 35.8672 157.901C36.5721 157.596 37.2002 157.146 37.7076 156.581L39.5418 158.287C38.8215 159.094 37.919 159.727 36.9051 160.138C35.8141 160.572 34.6445 160.789 33.4659 160.774C32.0095 160.798 30.5702 160.465 29.2816 159.804V159.804Z" fill="#505050"/>
<path d="M58.7209 157.138H51.0745L49.5612 160.584H46.6379L53.5163 145.696H56.3135L63.1918 160.584H60.2456L58.7209 157.138ZM57.7923 154.964L54.9034 148.462L52.0604 154.964H57.7923Z" fill="#505050"/>
<path d="M69.9211 145.696H76.6045C78.1074 145.669 79.5957 145.986 80.9493 146.622C82.1732 147.202 83.1999 148.111 83.907 149.243C84.5928 150.436 84.9529 151.779 84.9529 153.146C84.9529 154.513 84.5928 155.856 83.907 157.049C83.1999 158.181 82.1732 159.09 80.9493 159.67C79.5957 160.306 78.1074 160.623 76.6045 160.596H69.9211V145.696ZM76.4784 158.242C77.501 158.262 78.514 158.048 79.4361 157.618C80.2582 157.223 80.9436 156.603 81.4079 155.834C81.8596 155.004 82.0957 154.079 82.0957 153.14C82.0957 152.202 81.8596 151.277 81.4079 150.447C80.9436 149.678 80.2582 149.058 79.4361 148.663C78.514 148.232 77.501 148.019 76.4784 148.038H72.7641V158.242H76.4784Z" fill="#505050"/>
<path d="M105.677 158.265V160.584H94.213V145.696H105.379V148.016H97.0561V151.886H104.439V154.116H97.0561V158.22L105.677 158.265Z" fill="#505050"/>
<path d="M128.135 160.584V150.715L123.136 158.878H121.864L116.843 150.849V160.584H114.091V145.696H116.384L122.46 155.566L128.433 145.696H130.725V160.584H128.135Z" fill="#505050"/>
<path d="M146.397 155.332V160.584H143.554V155.376L137.546 145.696H140.584L145.055 152.945L149.584 145.696H152.381L146.397 155.332Z" fill="#505050"/>
<path d="M23.0797 79.7988H60.7156V81.5162C58.759 81.7465 56.854 82.2852 55.0753 83.111C53.6997 83.8024 53.0348 85.1407 53.0806 87.1034L53.0233 121.842C52.9653 122.694 53.156 123.544 53.5736 124.295C53.9304 124.816 54.4257 125.232 55.0065 125.5C55.6562 125.774 56.3437 125.955 57.0471 126.035C57.8152 126.147 58.6291 126.269 59.4775 126.425V127.987H38.5444V126.425C39.2552 126.329 40.0194 126.24 40.8372 126.158C41.5525 126.057 42.2458 125.842 42.8892 125.522C43.5158 125.245 44.0485 124.8 44.4254 124.24C44.8734 123.487 45.081 122.621 45.0215 121.753V83.6017H32.4112C30.3821 83.6017 32.1017 83.6797 30.7031 83.8359C29.483 83.9416 28.3053 84.3235 27.264 84.9511C26.2982 85.5921 25.5327 86.4795 25.0514 87.516C24.362 89.0072 23.8541 90.5717 23.5382 92.1776H21.8416L23.0797 79.7988Z" fill="#505050"/>
<path d="M66.3443 127.942V126.381C69.1644 126.381 71.0216 125.979 71.9043 125.177C72.3519 124.739 72.7012 124.215 72.9301 123.639C73.159 123.064 73.2625 122.448 73.2341 121.831V96.1812C73.278 95.1223 73.1425 94.0636 72.8329 93.0475C72.6447 92.2101 72.2245 91.4387 71.6177 90.8171C71.0366 90.285 70.3067 89.9319 69.5198 89.8023C68.4977 89.6318 67.4615 89.5534 66.4246 89.5681V87.8618H88.4352V89.5681C87.1559 89.7209 85.8883 89.9556 84.6407 90.2706C83.838 90.4446 83.1002 90.8304 82.5084 91.3859C81.9826 91.9751 81.6545 92.7067 81.5684 93.4824C81.4007 94.6125 81.3202 95.7532 81.3276 96.895V121.842C81.2665 124.898 83.6319 126.426 88.4238 126.426V127.987L66.3443 127.942Z" fill="#505050"/>
<path d="M129.304 102.728C126.762 104.981 123.59 106.452 120.19 106.954C118.402 107.222 116.43 107.423 114.263 107.579C112.097 107.735 109.815 107.813 107.385 107.813V120.716C107.313 121.797 107.481 122.881 107.878 123.894C108.164 124.562 108.678 125.113 109.334 125.455C109.647 125.6 109.973 125.715 110.308 125.801C110.797 125.937 111.295 126.042 111.799 126.113C112.326 126.191 112.83 126.258 113.3 126.303C113.612 126.345 113.926 126.371 114.24 126.381V127.942H94.064V126.381L98.6495 125.455C99.3 125.158 99.8058 124.626 100.06 123.972C100.434 122.927 100.597 121.821 100.541 120.716L100.633 87.6054C100.641 86.7565 100.541 85.9099 100.335 85.085C100.16 84.3702 99.814 83.7054 99.3259 83.1445C98.7838 82.5693 98.096 82.1424 97.3312 81.9067C96.2949 81.6014 95.2153 81.4583 94.1328 81.4829V79.7655H112.635C115.993 79.6821 119.344 80.1149 122.563 81.048C124.852 81.7432 126.974 82.8812 128.8 84.3936C130.232 85.5997 131.335 87.1323 132.009 88.8544C132.594 90.3441 132.909 91.9215 132.938 93.5159C132.927 97.4303 131.723 100.519 129.304 102.728ZM125.693 92.9695C125.747 91.3315 125.221 89.7251 124.203 88.4195C123.186 87.1469 121.924 86.0788 120.488 85.2746C119.023 84.4499 117.444 83.8339 115.799 83.4456C114.333 83.0871 112.829 82.8926 111.317 82.8657C110.402 82.8518 109.487 82.9303 108.589 83.0999C107.832 83.2561 107.442 83.546 107.442 83.9587V104.389C110.031 104.411 112.619 104.28 115.192 103.999C117.147 103.826 119.052 103.3 120.809 102.449C122.29 101.695 123.507 100.531 124.306 99.1031C125.221 97.2924 125.692 95.2996 125.681 93.2817L125.693 92.9695Z" fill="#505050"/>
<path d="M23.0797 79.7988H60.7156V81.5162C58.759 81.7465 56.854 82.2852 55.0753 83.111C53.6997 83.8024 53.0348 85.1407 53.0806 87.1034L53.0233 121.842C52.9653 122.694 53.156 123.544 53.5736 124.295C53.9304 124.816 54.4257 125.232 55.0065 125.5C55.6562 125.774 56.3437 125.955 57.0471 126.035C57.8152 126.147 58.6291 126.269 59.4775 126.425V127.987H38.5444V126.425C39.2552 126.329 40.0194 126.24 40.8372 126.158C41.5525 126.057 42.2458 125.842 42.8892 125.522C43.5158 125.245 44.0485 124.8 44.4254 124.24C44.8734 123.487 45.081 122.621 45.0215 121.753V83.6017H32.4112C30.3821 83.6017 32.1017 83.6797 30.7031 83.8359C29.483 83.9416 28.3053 84.3235 27.264 84.9511C26.2982 85.5921 25.5327 86.4795 25.0514 87.516C24.362 89.0072 23.8541 90.5717 23.5382 92.1776H21.8416L23.0797 79.7988Z" fill="#505050"/>
<path d="M66.3443 127.942V126.381C69.1644 126.381 71.0216 125.979 71.9043 125.177C72.3519 124.739 72.7012 124.215 72.9301 123.639C73.159 123.064 73.2625 122.448 73.2341 121.831V96.1812C73.278 95.1223 73.1425 94.0636 72.8329 93.0475C72.6447 92.2101 72.2245 91.4387 71.6177 90.8171C71.0366 90.285 70.3067 89.9319 69.5198 89.8023C68.4977 89.6318 67.4615 89.5534 66.4246 89.5681V87.8618H88.4352V89.5681C87.1559 89.7209 85.8883 89.9556 84.6407 90.2706C83.838 90.4446 83.1002 90.8304 82.5084 91.3859C81.9826 91.9751 81.6545 92.7067 81.5684 93.4824C81.4007 94.6125 81.3202 95.7532 81.3276 96.895V121.842C81.2665 124.898 83.6319 126.426 88.4238 126.426V127.987L66.3443 127.942Z" fill="#505050"/>
<path d="M129.304 102.728C126.762 104.981 123.59 106.452 120.19 106.954C118.402 107.222 116.43 107.423 114.263 107.579C112.097 107.735 109.815 107.813 107.385 107.813V120.716C107.313 121.797 107.481 122.881 107.878 123.894C108.164 124.562 108.678 125.113 109.334 125.455C109.647 125.6 109.973 125.715 110.308 125.801C110.797 125.937 111.295 126.042 111.799 126.113C112.326 126.191 112.83 126.258 113.3 126.303C113.612 126.345 113.926 126.371 114.24 126.381V127.942H94.064V126.381L98.6495 125.455C99.3 125.158 99.8058 124.626 100.06 123.972C100.434 122.927 100.597 121.821 100.541 120.716L100.633 87.6054C100.641 86.7565 100.541 85.9099 100.335 85.085C100.16 84.3702 99.814 83.7054 99.3259 83.1445C98.7838 82.5693 98.096 82.1424 97.3312 81.9067C96.2949 81.6014 95.2153 81.4583 94.1328 81.4829V79.7655H112.635C115.993 79.6821 119.344 80.1149 122.563 81.048C124.852 81.7432 126.974 82.8812 128.8 84.3936C130.232 85.5997 131.335 87.1323 132.009 88.8544C132.594 90.3441 132.909 91.9215 132.938 93.5159C132.927 97.4303 131.723 100.519 129.304 102.728ZM125.693 92.9695C125.747 91.3315 125.221 89.7251 124.203 88.4195C123.186 87.1469 121.924 86.0788 120.488 85.2746C119.023 84.4499 117.444 83.8339 115.799 83.4456C114.333 83.0871 112.829 82.8926 111.317 82.8657C110.402 82.8518 109.487 82.9303 108.589 83.0999C107.832 83.2561 107.442 83.546 107.442 83.9587V104.389C110.031 104.411 112.619 104.28 115.192 103.999C117.147 103.826 119.052 103.3 120.809 102.449C122.29 101.695 123.507 100.531 124.306 99.1031C125.221 97.2924 125.692 95.2996 125.681 93.2817L125.693 92.9695Z" fill="#505050"/>
<path d="M0.594849 209.316C0.598288 209.232 0.634852 209.153 0.696875 209.095C0.758897 209.037 0.84156 209.005 0.927537 209.005C0.969478 209.005 1.01101 209.013 1.04976 209.029C1.08851 209.044 1.12372 209.067 1.15337 209.096C1.18303 209.125 1.20656 209.159 1.22261 209.197C1.23866 209.234 1.24692 209.275 1.24692 209.316C1.24881 209.357 1.24184 209.398 1.22646 209.437C1.21107 209.475 1.18762 209.51 1.15757 209.539C1.12753 209.569 1.09156 209.591 1.05196 209.606C1.01235 209.621 0.969981 209.628 0.927537 209.626C0.884489 209.628 0.841524 209.621 0.801225 209.606C0.760927 209.592 0.724129 209.569 0.693048 209.54C0.661967 209.511 0.637245 209.476 0.620369 209.438C0.603493 209.399 0.594811 209.357 0.594849 209.316V209.316ZM0.727924 210.61H1.12715V214.636H0.727924V210.61Z" fill="#505050"/>
<path d="M6.50344 212.293V214.636H6.10421V212.319C6.10421 211.4 5.61184 210.921 4.77346 210.921C4.55833 210.907 4.34264 210.939 4.14128 211.014C3.93992 211.089 3.75767 211.205 3.60712 211.355C3.45657 211.505 3.3413 211.686 3.26926 211.883C3.19723 212.081 3.17014 212.291 3.18987 212.5V214.636H2.80396V210.61H3.17656V211.478C3.33307 211.189 3.57234 210.951 3.86529 210.793C4.15824 210.634 4.49225 210.562 4.82669 210.584C5.05832 210.567 5.29093 210.601 5.50777 210.682C5.72461 210.763 5.92027 210.889 6.08066 211.053C6.24104 211.216 6.36215 211.412 6.43526 211.627C6.50837 211.841 6.53166 212.069 6.50344 212.293V212.293Z" fill="#505050"/>
<path d="M9.72385 212.63C9.71271 212.359 9.75903 212.09 9.85991 211.837C9.96079 211.585 10.1141 211.356 10.3101 211.164C10.5062 210.972 10.7409 210.821 10.9995 210.722C11.2581 210.622 11.5351 210.575 11.8131 210.584C12.1177 210.568 12.4217 210.626 12.6965 210.756C12.9712 210.885 13.2076 211.08 13.3834 211.322L13.0906 211.529C12.9418 211.325 12.741 211.161 12.5078 211.054C12.2745 210.948 12.0169 210.902 11.7599 210.921C11.3221 210.958 10.9146 211.154 10.6177 211.469C10.3208 211.784 10.1561 212.196 10.1561 212.623C10.1561 213.051 10.3208 213.463 10.6177 213.778C10.9146 214.093 11.3221 214.288 11.7599 214.326C12.0169 214.345 12.2745 214.299 12.5078 214.192C12.741 214.085 12.9418 213.922 13.0906 213.717L13.3834 213.937C13.205 214.177 12.9682 214.37 12.6941 214.499C12.4199 214.628 12.1172 214.688 11.8131 214.675C11.5351 214.684 11.2581 214.637 10.9995 214.538C10.7409 214.438 10.5062 214.287 10.3101 214.095C10.1141 213.904 9.96079 213.674 9.85991 213.422C9.75903 213.17 9.71271 212.9 9.72385 212.63Z" fill="#505050"/>
<path d="M14.0488 212.629C14.0645 212.234 14.1994 211.851 14.4368 211.529C14.6742 211.208 15.0037 210.961 15.3841 210.82C15.7646 210.679 16.1792 210.65 16.5765 210.736C16.9738 210.823 17.3362 211.021 17.6186 211.306C17.901 211.591 18.0909 211.951 18.1648 212.341C18.2386 212.73 18.1931 213.132 18.0339 213.497C17.8747 213.861 17.6088 214.172 17.2694 214.391C16.93 214.609 16.5319 214.726 16.1248 214.727C15.8431 214.734 15.5629 214.685 15.3021 214.581C15.0412 214.477 14.8055 214.322 14.6101 214.124C14.4146 213.927 14.2638 213.692 14.1671 213.435C14.0705 213.177 14.0302 212.903 14.0488 212.629V212.629ZM17.7882 212.629C17.7726 212.313 17.6619 212.008 17.4699 211.752C17.2779 211.497 17.013 211.301 16.708 211.191C16.403 211.08 16.0713 211.059 15.7541 211.13C15.4368 211.201 15.148 211.361 14.9232 211.59C14.6985 211.819 14.5478 212.107 14.4899 212.419C14.4319 212.73 14.4692 213.052 14.5971 213.343C14.725 213.634 14.9379 213.882 15.2095 214.057C15.481 214.232 15.7993 214.325 16.1248 214.325C16.3507 214.327 16.5746 214.284 16.7827 214.199C16.9908 214.113 17.1786 213.987 17.3346 213.828C17.4905 213.669 17.6112 213.481 17.6893 213.275C17.7673 213.068 17.801 212.849 17.7882 212.629V212.629Z" fill="#505050"/>
<path d="M19.425 208.914H19.8243V214.636H19.425V208.914Z" fill="#505050"/>
<path d="M21.4877 208.914H21.887V214.636H21.4877V208.914Z" fill="#505050"/>
<path d="M26.5578 212.138V214.727H26.1719V214.015C26.0208 214.263 25.8009 214.465 25.5374 214.598C25.2738 214.731 24.9773 214.789 24.6815 214.766C23.75 214.766 23.191 214.3 23.191 213.614C23.191 212.927 23.5903 212.487 24.7347 212.487H26.1586V212.138C26.1765 211.979 26.1568 211.818 26.101 211.668C26.0452 211.517 25.9547 211.381 25.8366 211.27C25.7184 211.159 25.5757 211.075 25.4193 211.026C25.2629 210.977 25.097 210.963 24.9343 210.986C24.4086 210.981 23.8986 211.16 23.4971 211.491L23.2975 211.219C23.7625 210.839 24.3538 210.636 24.9609 210.649C25.1717 210.621 25.3863 210.639 25.5887 210.703C25.791 210.767 25.9759 210.875 26.1295 211.018C26.2831 211.161 26.4014 211.336 26.4756 211.53C26.5498 211.724 26.5779 211.932 26.5578 212.138V212.138ZM26.1586 213.432V212.669H24.748C23.883 212.669 23.5903 213.018 23.5903 213.484C23.5903 213.95 24.0028 214.326 24.7347 214.326C25.0391 214.345 25.3418 214.268 25.5981 214.107C25.8544 213.947 26.0509 213.71 26.1586 213.432V213.432Z" fill="#505050"/>
<path d="M32.2801 212.63C32.3002 212.898 32.2632 213.168 32.1713 213.422C32.0794 213.676 31.9345 213.908 31.7459 214.105C31.5573 214.302 31.3289 214.459 31.075 214.566C30.8211 214.673 30.5473 214.728 30.2706 214.727C29.9203 214.735 29.5747 214.648 29.2734 214.474C28.9721 214.3 28.7274 214.046 28.5673 213.743V214.688H28.1947V208.966H28.5806V211.555C28.7439 211.26 28.9887 211.016 29.2873 210.849C29.5859 210.682 29.9264 210.599 30.2706 210.61C30.5408 210.608 30.8085 210.66 31.0576 210.761C31.3067 210.863 31.532 211.013 31.7198 211.202C31.9077 211.39 32.0542 211.614 32.1505 211.86C32.2468 212.105 32.2909 212.367 32.2801 212.63V212.63ZM31.8809 212.63C31.9016 212.404 31.8738 212.177 31.7993 211.963C31.7247 211.748 31.6051 211.551 31.448 211.384C31.2909 211.217 31.0998 211.083 30.8868 210.992C30.6738 210.901 30.4435 210.854 30.2108 210.854C29.978 210.854 29.7478 210.901 29.5347 210.992C29.3217 211.083 29.1306 211.217 28.9735 211.384C28.8164 211.551 28.6968 211.748 28.6223 211.963C28.5477 212.177 28.52 212.404 28.5407 212.63C28.52 212.855 28.5477 213.083 28.6223 213.297C28.6968 213.512 28.8164 213.709 28.9735 213.876C29.1306 214.043 29.3217 214.176 29.5347 214.268C29.7478 214.359 29.978 214.406 30.2108 214.406C30.4435 214.406 30.6738 214.359 30.8868 214.268C31.0998 214.176 31.2909 214.043 31.448 213.876C31.6051 213.709 31.7247 213.512 31.7993 213.297C31.8738 213.083 31.9016 212.855 31.8809 212.63V212.63Z" fill="#505050"/>
<path d="M33.0917 212.629C33.1074 212.234 33.2423 211.851 33.4797 211.529C33.7172 211.208 34.0466 210.961 34.427 210.82C34.8075 210.679 35.2221 210.65 35.6194 210.736C36.0167 210.823 36.3791 211.021 36.6615 211.306C36.9439 211.591 37.1339 211.951 37.2077 212.341C37.2816 212.73 37.236 213.132 37.0768 213.497C36.9176 213.861 36.6518 214.172 36.3123 214.391C35.9729 214.609 35.5748 214.726 35.1677 214.726C34.8855 214.736 34.6043 214.688 34.3425 214.585C34.0807 214.482 33.8442 214.327 33.6483 214.129C33.4524 213.931 33.3016 213.695 33.2057 213.437C33.1098 213.178 33.071 212.903 33.0917 212.629ZM36.8311 212.629C36.8181 212.309 36.7084 212 36.5158 211.74C36.3232 211.48 36.0562 211.281 35.7482 211.168C35.4401 211.055 35.1046 211.033 34.7835 211.104C34.4624 211.175 34.17 211.336 33.9426 211.568C33.7153 211.8 33.5631 212.092 33.5052 212.407C33.4472 212.722 33.4859 213.047 33.6166 213.341C33.7473 213.635 33.964 213.885 34.2399 214.06C34.5157 214.235 34.8384 214.327 35.1677 214.325C35.3936 214.327 35.6175 214.284 35.8256 214.199C36.0337 214.113 36.2215 213.987 36.3775 213.828C36.5334 213.669 36.6542 213.481 36.7322 213.275C36.8102 213.068 36.8439 212.849 36.8311 212.629V212.629Z" fill="#505050"/>
<path d="M40.4243 210.584V210.96H40.3311C40.121 210.952 39.9117 210.989 39.7181 211.069C39.5244 211.148 39.351 211.268 39.2101 211.42C39.0693 211.572 38.9644 211.752 38.9028 211.948C38.8413 212.143 38.8246 212.349 38.854 212.552V214.649H38.4547V210.623H38.8407V211.503C38.9713 211.207 39.1947 210.959 39.4792 210.794C39.7636 210.629 40.0944 210.555 40.4243 210.584V210.584Z" fill="#505050"/>
<path d="M44.5096 212.137V214.726H44.1237V214.014C43.9725 214.263 43.7527 214.465 43.4891 214.598C43.2256 214.731 42.9291 214.789 42.6333 214.765C41.7017 214.765 41.1428 214.299 41.1428 213.613C41.1428 212.927 41.542 212.487 42.6865 212.487H44.1104V212.137C44.1287 211.977 44.1089 211.815 44.0523 211.663C43.9958 211.512 43.9041 211.375 43.7844 211.264C43.6647 211.152 43.5201 211.069 43.362 211.021C43.2039 210.973 43.0365 210.96 42.8728 210.985C42.3514 210.983 41.8463 211.162 41.4489 211.49L41.2493 211.218C41.708 210.812 42.3056 210.586 42.926 210.584C43.142 210.556 43.3617 210.577 43.5679 210.645C43.7741 210.713 43.9613 210.827 44.1147 210.978C44.2681 211.128 44.3836 211.311 44.4521 211.512C44.5206 211.714 44.5403 211.928 44.5096 212.137V212.137ZM44.1104 213.51V212.746H42.6998C41.8348 212.746 41.542 213.095 41.542 213.561C41.542 214.027 41.9546 214.403 42.6865 214.403C43.0007 214.417 43.3109 214.329 43.5685 214.153C43.8261 213.978 44.0166 213.724 44.1104 213.432V213.51Z" fill="#505050"/>
<path d="M48.2491 214.39C48.0079 214.578 47.7067 214.679 47.3974 214.675C47.2448 214.691 47.0903 214.674 46.9453 214.625C46.8004 214.575 46.6688 214.495 46.5602 214.389C46.4516 214.283 46.3688 214.155 46.3179 214.014C46.267 213.873 46.2494 213.723 46.2663 213.575V210.985H45.4545V210.649H46.2131V209.769H46.6123V210.649H47.943V210.985H46.6123V213.575C46.6123 214.092 46.8784 214.377 47.3841 214.377C47.6179 214.384 47.8459 214.306 48.0229 214.157L48.2491 214.39Z" fill="#505050"/>
<path d="M49.1672 209.315C49.1825 209.242 49.2233 209.176 49.2827 209.129C49.3421 209.082 49.4165 209.056 49.4933 209.056C49.57 209.056 49.6444 209.082 49.7038 209.129C49.7632 209.176 49.804 209.242 49.8193 209.315C49.8193 209.398 49.7857 209.477 49.7258 209.535C49.6659 209.593 49.5846 209.626 49.4999 209.626C49.4569 209.628 49.4139 209.621 49.3736 209.606C49.3333 209.591 49.2965 209.569 49.2654 209.54C49.2344 209.511 49.2096 209.476 49.1928 209.437C49.1759 209.399 49.1672 209.357 49.1672 209.315V209.315ZM49.3003 210.61H49.6862V214.636H49.3003V210.61Z" fill="#505050"/>
<path d="M50.9105 212.629C50.9262 212.234 51.0611 211.851 51.2985 211.529C51.536 211.208 51.8654 210.961 52.2458 210.82C52.6263 210.679 53.0409 210.65 53.4382 210.736C53.8355 210.823 54.1979 211.021 54.4803 211.306C54.7627 211.591 54.9527 211.951 55.0265 212.341C55.1003 212.73 55.0548 213.132 54.8956 213.497C54.7364 213.861 54.4706 214.172 54.1311 214.391C53.7917 214.609 53.3936 214.726 52.9865 214.727C52.7049 214.734 52.4246 214.685 52.1638 214.581C51.903 214.477 51.6673 214.322 51.4718 214.124C51.2764 213.927 51.1255 213.692 51.0288 213.435C50.9322 213.177 50.8919 212.903 50.9105 212.629V212.629ZM54.6499 212.629C54.6343 212.313 54.5236 212.008 54.3316 211.752C54.1396 211.497 53.8747 211.301 53.5697 211.191C53.2647 211.08 52.933 211.059 52.6158 211.13C52.2985 211.201 52.0097 211.361 51.785 211.59C51.5602 211.819 51.4096 212.107 51.3516 212.419C51.2936 212.73 51.3309 213.052 51.4588 213.343C51.5867 213.634 51.7996 213.882 52.0712 214.057C52.3427 214.232 52.661 214.325 52.9865 214.325C53.2124 214.327 53.4363 214.284 53.6444 214.199C53.8525 214.113 54.0403 213.987 54.1963 213.828C54.3522 213.669 54.473 213.481 54.551 213.275C54.629 213.068 54.6627 212.849 54.6499 212.629V212.629Z" fill="#505050"/>
<path d="M59.9863 212.293V214.636H59.6003V212.319C59.6151 212.14 59.5916 211.961 59.5313 211.792C59.4711 211.622 59.3754 211.467 59.2503 211.336C59.1252 211.204 58.9735 211.1 58.8047 211.028C58.6359 210.957 58.4537 210.92 58.2696 210.921C58.055 210.907 57.8398 210.938 57.639 211.013C57.4382 211.088 57.2566 211.205 57.1071 211.355C56.9575 211.506 56.8435 211.686 56.7731 211.884C56.7027 212.082 56.6775 212.292 56.6993 212.5V214.636H56.2336V210.61H56.6062V211.477C56.7627 211.189 57.0019 210.951 57.2949 210.793C57.5878 210.634 57.9218 210.562 58.2563 210.584C58.4927 210.556 58.7325 210.582 58.9573 210.658C59.1821 210.734 59.3859 210.86 59.553 211.025C59.7201 211.19 59.846 211.39 59.9211 211.61C59.9962 211.83 60.0185 212.064 59.9863 212.293V212.293Z" fill="#505050"/>
<path d="M69.541 210.61L67.9708 214.636H67.5982L66.2674 211.141L64.8568 214.636H64.4975L62.8873 210.61H63.2599L64.5907 214.209L66.0146 210.61H66.3472L67.7578 214.196L69.0886 210.61H69.541Z" fill="#505050"/>
<path d="M70.3661 209.316C70.3696 209.232 70.4061 209.153 70.4681 209.095C70.5302 209.037 70.6128 209.005 70.6988 209.005C70.7835 209.005 70.8648 209.038 70.9246 209.096C70.9845 209.154 71.0182 209.233 71.0182 209.316C71.0201 209.357 71.0131 209.398 70.9977 209.437C70.9823 209.475 70.9589 209.51 70.9288 209.539C70.8988 209.569 70.8628 209.591 70.8232 209.606C70.7836 209.621 70.7413 209.628 70.6988 209.626C70.6558 209.628 70.6128 209.621 70.5725 209.606C70.5322 209.592 70.4954 209.569 70.4643 209.54C70.4332 209.511 70.4085 209.476 70.3916 209.438C70.3748 209.399 70.3661 209.357 70.3661 209.316V209.316ZM70.4992 210.61H70.8718V214.636H70.4726L70.4992 210.61Z" fill="#505050"/>
<path d="M74.6245 214.39C74.3868 214.585 74.0832 214.686 73.7729 214.675C73.6202 214.691 73.4657 214.674 73.3208 214.625C73.1759 214.575 73.0442 214.495 72.9356 214.389C72.827 214.283 72.7442 214.155 72.6933 214.014C72.6425 213.873 72.6248 213.723 72.6417 213.575V210.985H71.8832V210.649H72.6417V209.769H73.0409V210.649H74.3717V210.985H73.0409V213.575C73.0409 214.092 73.3071 214.377 73.8128 214.377C74.0501 214.382 74.2813 214.304 74.4648 214.157L74.6245 214.39Z" fill="#505050"/>
<path d="M79.4286 212.293V214.636H79.0293V212.319C79.0293 211.4 78.537 210.921 77.6986 210.921C77.4894 210.916 77.2816 210.955 77.089 211.034C76.8963 211.113 76.7231 211.231 76.581 211.381C76.4388 211.53 76.3309 211.707 76.2643 211.9C76.1977 212.093 76.1741 212.297 76.1949 212.5V214.636H75.7956V208.914H76.1949V211.503C76.3506 211.222 76.5868 210.99 76.8748 210.836C77.1629 210.682 77.4906 210.613 77.8184 210.636C78.0402 210.627 78.2613 210.665 78.4668 210.747C78.6723 210.829 78.8576 210.952 79.0101 211.109C79.1626 211.266 79.2788 211.453 79.351 211.657C79.4232 211.861 79.4496 212.078 79.4286 212.293V212.293Z" fill="#505050"/>
<path d="M124.741 203.218L128.347 201.911L124.741 200.577V198.752L130.915 201.173V202.661L124.741 205.082V203.218Z" fill="#505050"/>
<path d="M90.7 214.727C89.3692 214.727 88.3179 214.092 88.3179 212.681V212.604C88.3179 210.895 89.8616 210.299 91.738 210.299H92.6163V209.963C92.6163 209.251 92.3102 208.849 91.5383 208.849C91.4065 208.831 91.272 208.84 91.1441 208.877C91.0162 208.913 90.8978 208.975 90.7969 209.06C90.696 209.145 90.6149 209.25 90.5591 209.367C90.5034 209.485 90.4743 209.613 90.4738 209.743H88.5575C88.7039 208.176 89.9681 207.425 91.6581 207.425C93.3482 207.425 94.639 208.137 94.639 209.885V214.584H92.6828V213.756C92.4623 214.066 92.1652 214.318 91.8188 214.488C91.4723 214.657 91.0876 214.739 90.7 214.727V214.727ZM92.6163 212.267V211.607H91.8045C90.8064 211.607 90.3141 211.866 90.3141 212.5V212.565C90.3141 213.057 90.6201 213.393 91.3121 213.393C91.6327 213.415 91.9491 213.313 92.1931 213.109C92.4371 212.906 92.5891 212.617 92.6163 212.306V212.267ZM99.27 214.727C98.7907 214.753 98.3113 214.676 97.8656 214.503C97.4198 214.329 97.0186 214.063 96.6901 213.722C96.3616 213.382 96.1137 212.975 95.964 212.531C95.8143 212.088 95.7663 211.618 95.8234 211.154V211.037C95.77 210.571 95.82 210.098 95.9701 209.652C96.1201 209.205 96.3667 208.795 96.6933 208.449C97.0199 208.104 97.4188 207.83 97.8632 207.646C98.3077 207.463 98.7874 207.375 99.27 207.387C99.6523 207.349 100.038 207.387 100.405 207.498C100.772 207.609 101.112 207.791 101.405 208.033C101.698 208.274 101.938 208.571 102.111 208.905C102.284 209.239 102.386 209.603 102.411 209.976H100.428C100.308 209.303 99.9221 208.849 99.2434 208.849C98.5647 208.849 97.7796 209.523 97.7796 210.908V211.128C97.7796 212.539 98.3252 213.173 99.2434 213.173C99.5963 213.173 99.9348 213.037 100.184 212.794C100.434 212.551 100.574 212.222 100.574 211.879H102.424C102.43 212.279 102.349 212.676 102.185 213.044C102.021 213.411 101.779 213.741 101.475 214.01C101.17 214.279 100.81 214.483 100.418 214.606C100.027 214.73 99.6126 214.771 99.2035 214.727H99.27ZM106.775 214.727C106.296 214.753 105.817 214.676 105.371 214.503C104.925 214.329 104.524 214.063 104.196 213.722C103.867 213.382 103.619 212.975 103.469 212.531C103.32 212.088 103.272 211.618 103.329 211.154V211.037C103.275 210.571 103.325 210.098 103.475 209.652C103.626 209.205 103.872 208.795 104.199 208.449C104.525 208.104 104.924 207.83 105.369 207.646C105.813 207.463 106.293 207.375 106.775 207.387C107.158 207.349 107.544 207.387 107.911 207.498C108.277 207.609 108.618 207.791 108.911 208.033C109.204 208.274 109.444 208.571 109.617 208.905C109.789 209.239 109.891 209.603 109.916 209.976H107.933C107.813 209.303 107.441 208.849 106.749 208.849C106.057 208.849 105.285 209.523 105.285 210.908V211.128C105.285 212.539 105.831 213.173 106.749 213.173C107.102 213.173 107.44 213.037 107.69 212.794C107.939 212.551 108.08 212.222 108.08 211.879H109.916C109.922 212.278 109.841 212.674 109.678 213.04C109.515 213.407 109.274 213.736 108.971 214.005C108.668 214.274 108.31 214.477 107.92 214.602C107.53 214.726 107.117 214.769 106.709 214.727H106.775ZM114.321 214.727C113.841 214.768 113.359 214.705 112.907 214.543C112.456 214.38 112.047 214.123 111.709 213.789C111.372 213.455 111.115 213.052 110.957 212.61C110.799 212.168 110.743 211.697 110.794 211.231V211.076C110.741 210.609 110.791 210.137 110.941 209.691C111.091 209.244 111.338 208.834 111.664 208.488C111.991 208.142 112.39 207.869 112.834 207.685C113.279 207.502 113.758 207.413 114.241 207.425C114.686 207.402 115.131 207.473 115.544 207.634C115.958 207.795 116.331 208.042 116.636 208.358C116.941 208.673 117.172 209.05 117.313 209.461C117.453 209.873 117.499 210.309 117.448 210.74V211.607H112.79C112.87 212.901 113.442 213.355 114.294 213.355C114.586 213.368 114.874 213.288 115.115 213.127C115.355 212.966 115.535 212.732 115.625 212.461H117.448C117.292 213.153 116.881 213.766 116.293 214.183C115.704 214.6 114.979 214.794 114.254 214.727H114.321ZM112.897 210.261H115.558C115.558 209.212 115.013 208.772 114.228 208.772C113.443 208.772 112.99 209.186 112.83 210.299L112.897 210.261ZM118.779 207.62H120.802V208.655C121.011 208.275 121.328 207.961 121.714 207.75C122.101 207.539 122.541 207.44 122.984 207.464C124.315 207.464 125.166 208.254 125.166 209.924V214.623H123.144V210.222C123.144 209.406 122.798 209.031 122.066 209.031C121.886 209.012 121.705 209.033 121.535 209.092C121.365 209.15 121.211 209.245 121.083 209.369C120.956 209.493 120.858 209.644 120.798 209.809C120.738 209.974 120.716 210.151 120.735 210.325V214.61H118.779V207.607V207.62ZM128.879 205.497V207.62H130.21V209.07H128.879V212.384C128.879 212.901 129.119 213.173 129.611 213.173C129.848 213.182 130.083 213.142 130.303 213.057V214.584C129.927 214.688 129.536 214.736 129.145 214.727C127.575 214.727 126.856 214.028 126.856 212.604V209.07H126.005V207.62H126.763V206.325L128.879 205.497ZM137.848 214.558H135.852V213.51C135.659 213.886 135.357 214.199 134.983 214.41C134.61 214.622 134.181 214.723 133.75 214.701C133.429 214.715 133.109 214.661 132.812 214.541C132.515 214.421 132.249 214.239 132.033 214.008C131.817 213.777 131.656 213.502 131.562 213.203C131.467 212.905 131.442 212.589 131.487 212.28V207.555H133.524V212.138C133.524 212.953 133.856 213.329 134.548 213.329C134.727 213.345 134.907 213.322 135.076 213.263C135.245 213.203 135.398 213.108 135.525 212.985C135.652 212.861 135.75 212.712 135.811 212.548C135.872 212.383 135.895 212.208 135.879 212.034V207.684H137.915L137.848 214.558ZM139.339 207.555H141.402V208.849C141.564 208.422 141.865 208.058 142.258 207.81C142.652 207.563 143.117 207.446 143.584 207.477V209.549C142.253 209.549 141.402 209.95 141.402 211.115V214.727H139.366L139.339 207.555ZM147.656 214.701C147.176 214.737 146.694 214.668 146.244 214.501C145.795 214.334 145.388 214.072 145.055 213.735C144.722 213.397 144.469 212.991 144.316 212.547C144.163 212.103 144.113 211.632 144.17 211.167V211.011C144.116 210.545 144.166 210.072 144.316 209.626C144.466 209.179 144.713 208.769 145.039 208.424C145.366 208.078 145.765 207.804 146.209 207.621C146.654 207.437 147.134 207.349 147.616 207.361C148.068 207.325 148.521 207.388 148.945 207.543C149.369 207.699 149.751 207.944 150.066 208.261C150.38 208.578 150.618 208.959 150.763 209.376C150.908 209.794 150.956 210.237 150.903 210.675V211.542H146.192C146.272 212.837 146.844 213.29 147.683 213.29C147.975 213.304 148.263 213.224 148.504 213.062C148.744 212.901 148.923 212.667 149.013 212.397H150.89C150.725 213.104 150.303 213.73 149.702 214.158C149.1 214.586 148.359 214.788 147.616 214.727L147.656 214.701ZM146.192 210.235H148.92C148.92 209.186 148.375 208.746 147.59 208.746C146.804 208.746 146.352 209.186 146.152 210.299L146.192 210.235Z" fill="#505050"/>
<defs>
<linearGradient id="paint0_linear_615_931" x1="105.471" y1="38.1462" x2="86.131" y2="38.1462" gradientUnits="userSpaceOnUse">
<stop stop-color="#31656D" stop-opacity="0.4"/>
<stop offset="0.14" stop-color="#31656D" stop-opacity="0.28"/>
<stop offset="0.39" stop-color="#31656D" stop-opacity="0.12"/>
<stop offset="0.66" stop-color="#31656D" stop-opacity="0.03"/>
<stop offset="1" stop-color="#31656D" stop-opacity="0"/>
</linearGradient>
<linearGradient id="paint1_linear_615_931" x1="48.1053" y1="37.8788" x2="67.4449" y2="37.8788" gradientUnits="userSpaceOnUse">
<stop stop-color="white" stop-opacity="0"/>
<stop offset="0.05" stop-color="white" stop-opacity="0.1"/>
<stop offset="0.12" stop-color="white" stop-opacity="0.25"/>
<stop offset="0.2" stop-color="white" stop-opacity="0.36"/>
<stop offset="0.27" stop-color="white" stop-opacity="0.44"/>
<stop offset="0.35" stop-color="white" stop-opacity="0.48"/>
<stop offset="0.42" stop-color="white" stop-opacity="0.5"/>
<stop offset="1" stop-color="white" stop-opacity="0"/>
</linearGradient>
</defs>
</svg>
